ffmpeg version 4.2.1-tessus  https://evermeet.cx/ffmpeg/  Copyright (c) 2000-2019 the FFmpeg developers
  built with Apple LLVM version 10.0.1 (clang-1001.0.46.4)
  configuration: --cc=/usr/bin/clang --prefix=/opt/ffmpeg --extra-version=tessus --enable-avisynth --enable-fontconfig --enable-gpl --enable-libaom --enable-libass --enable-libbluray --enable-libdav1d --enable-libfreetype --enable-libgsm --enable-libmodplug --enable-libmp3lame --enable-libmysofa --enable-libopencore-amrnb --enable-libopencore-amrwb --enable-libopenh264 --enable-libopenjpeg --enable-libopus --enable-librubberband --enable-libshine --enable-libsnappy --enable-libsoxr --enable-libspeex --enable-libtheora --enable-libtwolame --enable-libvidstab --enable-libvmaf --enable-libvo-amrwbenc --enable-libvorbis --enable-libvpx --enable-libwavpack --enable-libwebp --enable-libx264 --enable-libx265 --enable-libxavs --enable-libxvid --enable-libzimg --enable-libzmq --enable-libzvbi --enable-version3 --pkg-config-flags=--static --disable-ffplay
  libavutil      56. 31.100 / 56. 31.100
  libavcodec     58. 54.100 / 58. 54.100
  libavformat    58. 29.100 / 58. 29.100
  libavdevice    58.  8.100 / 58.  8.100
  libavfilter     7. 57.100 /  7. 57.100
  libswscale      5.  5.100 /  5.  5.100
  libswresample   3.  5.100 /  3.  5.100
  libpostproc    55.  5.100 / 55.  5.100
[AVFoundation input device @ 0x7f84d5f00540] Configuration of video device failed, falling back to default.
[avfoundation @ 0x7f84d7000000] Stream #0: not enough frames to estimate rate; consider increasing probesize
Input #0, avfoundation, from '1':
  Duration: N/A, start: 249679.360500, bitrate: N/A
    Stream #0:0: Video: rawvideo (UYVY / 0x59565955), uyvy422, 1920x1080, 1000k tbr, 1000k tbn, 1000k tbc
Stream mapping:
  Stream #0:0 -> #0:0 (rawvideo (native) -> h264 (libx264))
Press [q] to stop, [?] for help
[libx264 @ 0x7f84d69dd200] using cpu capabilities: MMX2 SSE2Fast SSSE3 SSE4.2 AVX
[libx264 @ 0x7f84d69dd200] profile Progressive High, level 4.0, 4:2:0, 8-bit
[libx264 @ 0x7f84d69dd200] 264 - core 157 r2969 d4099dd - H.264/MPEG-4 AVC codec - Copyleft 2003-2019 - http://www.videolan.org/x264.html - options: cabac=1 ref=3 deblock=1:0:0 analyse=0x3:0x113 me=hex subme=7 psy=1 psy_rd=1.00:0.00 mixed_ref=1 me_range=16 chroma_me=1 trellis=1 8x8dct=1 cqm=0 deadzone=21,11 fast_pskip=1 chroma_qp_offset=-2 threads=6 lookahead_threads=1 sliced_threads=0 nr=0 decimate=1 interlaced=0 bluray_compat=0 constrained_intra=0 bframes=3 b_pyramid=2 b_adapt=1 b_bias=0 direct=1 weightb=1 open_gop=0 weightp=2 keyint=250 keyint_min=25 scenecut=40 intra_refresh=0 rc_lookahead=40 rc=crf mbtree=1 crf=23.0 qcomp=0.60 qpmin=0 qpmax=69 qpstep=4 ip_ratio=1.40 aq=1:1.00
Output #0, mp4, to './mp4s/Validate_that_the_ticker_of_the_third_song_can_be_closed20200110_1051.mp4':
  Metadata:
    encoder         : Lavf58.29.100
    Stream #0:0: Video: h264 (libx264) (avc1 / 0x31637661), yuv420p, 1920x1080, q=-1--1, 30 fps, 15360 tbn, 30 tbc
    Metadata:
      encoder         : Lavc58.54.100 libx264
    Side data:
      cpb: bitrate max/min/avg: 0/0/0 buffer size: 0 vbv_delay: -1
frame=   18 fps=0.0 q=0.0 size=       0kB time=00:00:00.00 bitrate=N/A dup=0 drop=15 speed=   0x    frame=   33 fps= 32 q=0.0 size=       0kB time=00:00:00.00 bitrate=N/A dup=0 drop=30 speed=   0x    frame=   51 fps= 30 q=29.0 size=       0kB time=-00:00:00.06 bitrate=N/A dup=4 drop=43 speed=N/A    frame=   68 fps= 30 q=29.0 size=       0kB time=00:00:00.50 bitrate=   0.8kbits/s dup=19 drop=43 speed=0.224x    frame=   86 fps= 30 q=29.0 size=       0kB time=00:00:01.10 bitrate=   0.3kbits/s dup=34 drop=43 speed=0.389x    frame=  104 fps= 30 q=29.0 size=       0kB time=00:00:01.70 bitrate=   0.2kbits/s dup=50 drop=43 speed=0.496x    frame=  121 fps= 31 q=29.0 size=       0kB time=00:00:02.26 bitrate=   0.2kbits/s dup=54 drop=48 speed=0.574x    frame=  137 fps= 31 q=29.0 size=       0kB time=00:00:02.80 bitrate=   0.1kbits/s dup=54 drop=64 speed=0.627x    frame=  152 fps= 31 q=29.0 size=       0kB time=00:00:03.30 bitrate=   0.1kbits/s dup=54 drop=79 speed=0.665x    frame=  167 fps= 30 q=29.0 size=       0kB time=00:00:03.80 bitrate=   0.1kbits/s dup=54 drop=94 speed=0.693x    frame=  183 fps= 31 q=29.0 size=       0kB time=00:00:04.33 bitrate=   0.1kbits/s dup=54 drop=110 speed=0.723x    frame=  198 fps= 30 q=29.0 size=       0kB time=00:00:04.83 bitrate=   0.1kbits/s dup=62 drop=110 speed=0.743x    frame=  213 fps= 30 q=29.0 size=       0kB time=00:00:05.33 bitrate=   0.1kbits/s dup=62 drop=125 speed=0.76x    frame=  229 fps= 30 q=29.0 size=       0kB time=00:00:05.86 bitrate=   0.1kbits/s dup=62 drop=141 speed=0.779x    frame=  244 fps= 30 q=29.0 size=       0kB time=00:00:06.36 bitrate=   0.1kbits/s dup=62 drop=156 speed=0.792x    frame=  259 fps= 30 q=29.0 size=       0kB time=00:00:06.86 bitrate=   0.1kbits/s dup=62 drop=168 speed=0.803x    frame=  274 fps= 30 q=29.0 size=       0kB time=00:00:07.36 bitrate=   0.1kbits/s dup=62 drop=177 speed=0.814x    frame=  290 fps= 30 q=29.0 size=       0kB time=00:00:07.90 bitrate=   0.0kbits/s dup=62 drop=191 speed=0.826x    frame=  305 fps= 30 q=29.0 size=       0kB time=00:00:08.40 bitrate=   0.0kbits/s dup=62 drop=204 speed=0.834x    frame=  320 fps= 30 q=29.0 size=       0kB time=00:00:08.90 bitrate=   0.0kbits/s dup=62 drop=219 speed=0.841x    frame=  335 fps= 30 q=29.0 size=       0kB time=00:00:09.40 bitrate=   0.0kbits/s dup=62 drop=234 speed=0.848x    frame=  351 fps= 30 q=29.0 size=       0kB time=00:00:09.93 bitrate=   0.0kbits/s dup=62 drop=246 speed=0.856x    frame=  366 fps= 30 q=29.0 size=       0kB time=00:00:10.43 bitrate=   0.0kbits/s dup=62 drop=261 speed=0.862x    frame=  381 fps= 30 q=29.0 size=       0kB time=00:00:10.93 bitrate=   0.0kbits/s dup=62 drop=276 speed=0.867x    frame=  396 fps= 30 q=29.0 size=       0kB time=00:00:11.43 bitrate=   0.0kbits/s dup=62 drop=291 speed=0.872x    frame=  412 fps= 30 q=29.0 size=     256kB time=00:00:11.96 bitrate= 175.3kbits/s dup=62 drop=307 speed=0.878x    frame=  427 fps= 30 q=29.0 size=     256kB time=00:00:12.46 bitrate= 168.3kbits/s dup=62 drop=322 speed=0.881x    frame=  442 fps= 30 q=29.0 size=     256kB time=00:00:12.96 bitrate= 161.8kbits/s dup=62 drop=333 speed=0.885x    frame=  458 fps= 30 q=29.0 size=     256kB time=00:00:13.50 bitrate= 155.4kbits/s dup=62 drop=347 speed=0.89x    frame=  473 fps= 30 q=29.0 size=     256kB time=00:00:14.00 bitrate= 149.8kbits/s dup=62 drop=353 speed=0.893x    frame=  488 fps= 30 q=29.0 size=     256kB time=00:00:14.50 bitrate= 144.7kbits/s dup=62 drop=363 speed=0.896x    frame=  504 fps= 30 q=29.0 size=     256kB time=00:00:15.03 bitrate= 139.5kbits/s dup=62 drop=379 speed= 0.9x    frame=  519 fps= 30 q=29.0 size=     256kB time=00:00:15.53 bitrate= 135.0kbits/s dup=70 drop=379 speed=0.902x    frame=  535 fps= 30 q=29.0 size=     256kB time=00:00:16.06 bitrate= 130.6kbits/s dup=70 drop=393 speed=0.907x    frame=  550 fps= 30 q=29.0 size=     256kB time=00:00:16.56 bitrate= 126.6kbits/s dup=70 drop=408 speed=0.909x    frame=  565 fps= 30 q=29.0 size=     256kB time=00:00:17.06 bitrate= 122.9kbits/s dup=70 drop=419 speed=0.911x    frame=  580 fps= 30 q=29.0 size=     256kB time=00:00:17.56 bitrate= 119.4kbits/s dup=70 drop=432 speed=0.913x    frame=  596 fps= 30 q=29.0 size=     256kB time=00:00:18.10 bitrate= 115.9kbits/s dup=70 drop=448 speed=0.916x    frame=  611 fps= 30 q=29.0 size=     256kB time=00:00:18.60 bitrate= 112.8kbits/s dup=70 drop=461 speed=0.918x    frame=  626 fps= 30 q=29.0 size=     256kB time=00:00:19.10 bitrate= 109.8kbits/s dup=70 drop=472 speed=0.919x    frame=  642 fps= 30 q=29.0 size=     256kB time=00:00:19.63 bitrate= 106.8kbits/s dup=70 drop=488 speed=0.922x    frame=  657 fps= 30 q=29.0 size=     256kB time=00:00:20.13 bitrate= 104.2kbits/s dup=70 drop=503 speed=0.924x    frame=  672 fps= 30 q=29.0 size=     256kB time=00:00:20.63 bitrate= 101.7kbits/s dup=70 drop=518 speed=0.925x    frame=  687 fps= 30 q=29.0 size=     256kB time=00:00:21.13 bitrate=  99.3kbits/s dup=70 drop=531 speed=0.927x    frame=  702 fps= 30 q=29.0 size=     256kB time=00:00:21.63 bitrate=  97.0kbits/s dup=70 drop=546 speed=0.928x    frame=  718 fps= 30 q=29.0 size=     256kB time=00:00:22.16 bitrate=  94.6kbits/s dup=70 drop=562 speed=0.93x    frame=  733 fps= 30 q=29.0 size=     256kB time=00:00:22.66 bitrate=  92.5kbits/s dup=70 drop=577 speed=0.931x    frame=  748 fps= 30 q=29.0 size=     256kB time=00:00:23.16 bitrate=  90.5kbits/s dup=70 drop=592 speed=0.932x    frame=  763 fps= 30 q=29.0 size=     256kB time=00:00:23.66 bitrate=  88.6kbits/s dup=70 drop=601 speed=0.934x    frame=  779 fps= 30 q=29.0 size=     256kB time=00:00:24.20 bitrate=  86.7kbits/s dup=70 drop=617 speed=0.936x    frame=  794 fps= 30 q=29.0 size=     256kB time=00:00:24.70 bitrate=  84.9kbits/s dup=70 drop=632 speed=0.937x    frame=  809 fps= 30 q=29.0 size=     256kB time=00:00:25.20 bitrate=  83.2kbits/s dup=70 drop=644 speed=0.937x    frame=  825 fps= 30 q=29.0 size=     256kB time=00:00:25.73 bitrate=  81.5kbits/s dup=70 drop=655 speed=0.939x    frame=  840 fps= 30 q=29.0 size=     256kB time=00:00:26.23 bitrate=  80.0kbits/s dup=70 drop=670 speed=0.94x    frame=  855 fps= 30 q=29.0 size=     256kB time=00:00:26.73 bitrate=  78.5kbits/s dup=70 drop=685 speed=0.941x    frame=  871 fps= 30 q=29.0 size=     256kB time=00:00:27.26 bitrate=  76.9kbits/s dup=70 drop=701 speed=0.943x    frame=  886 fps= 30 q=29.0 size=     256kB time=00:00:27.76 bitrate=  75.5kbits/s dup=70 drop=713 speed=0.943x    frame=  901 fps= 30 q=29.0 size=     256kB time=00:00:28.26 bitrate=  74.2kbits/s dup=70 drop=728 speed=0.944x    frame=  916 fps= 30 q=29.0 size=     256kB time=00:00:28.76 bitrate=  72.9kbits/s dup=70 drop=738 speed=0.945x    frame=  932 fps= 30 q=29.0 size=     256kB time=00:00:29.30 bitrate=  71.6kbits/s dup=70 drop=754 speed=0.946x    frame=  947 fps= 30 q=29.0 size=     256kB time=00:00:29.80 bitrate=  70.4kbits/s dup=70 drop=769 speed=0.947x    frame=  962 fps= 30 q=29.0 size=     256kB time=00:00:30.30 bitrate=  69.2kbits/s dup=70 drop=784 speed=0.947x    frame=  978 fps= 30 q=29.0 size=     256kB time=00:00:30.83 bitrate=  68.0kbits/s dup=70 drop=798 speed=0.949x    frame=  993 fps= 30 q=29.0 size=     256kB time=00:00:31.33 bitrate=  66.9kbits/s dup=70 drop=812 speed=0.95x    frame= 1008 fps= 30 q=29.0 size=     256kB time=00:00:31.83 bitrate=  65.9kbits/s dup=70 drop=824 speed=0.95x    frame= 1024 fps= 30 q=29.0 size=     256kB time=00:00:32.36 bitrate=  64.8kbits/s dup=70 drop=839 speed=0.951x    frame= 1039 fps= 30 q=29.0 size=     256kB time=00:00:32.86 bitrate=  63.8kbits/s dup=70 drop=851 speed=0.952x    frame= 1054 fps= 30 q=29.0 size=     256kB time=00:00:33.36 bitrate=  62.9kbits/s dup=70 drop=865 speed=0.952x    frame= 1069 fps= 30 q=29.0 size=     256kB time=00:00:33.86 bitrate=  61.9kbits/s dup=70 drop=877 speed=0.953x    frame= 1085 fps= 30 q=29.0 size=     256kB time=00:00:34.40 bitrate=  61.0kbits/s dup=70 drop=893 speed=0.954x    frame= 1098 fps= 30 q=29.0 size=     256kB time=00:00:34.83 bitrate=  60.2kbits/s dup=76 drop=897 speed=0.952x    frame= 1119 fps= 30 q=29.0 size=     256kB time=00:00:35.53 bitrate=  59.0kbits/s dup=93 drop=897 speed=0.953x    frame= 1137 fps= 30 q=29.0 size=     256kB time=00:00:36.13 bitrate=  58.0kbits/s dup=108 drop=897 speed=0.954x    frame= 1152 fps= 30 q=29.0 size=     256kB time=00:00:36.63 bitrate=  57.3kbits/s dup=121 drop=897 speed=0.954x    frame= 1172 fps= 30 q=29.0 size=     256kB time=00:00:37.30 bitrate=  56.2kbits/s dup=138 drop=897 speed=0.956x    frame= 1188 fps= 30 q=29.0 size=     256kB time=00:00:37.83 bitrate=  55.4kbits/s dup=152 drop=897 speed=0.956x    frame= 1211 fps= 30 q=29.0 size=     256kB time=00:00:38.60 bitrate=  54.3kbits/s dup=173 drop=897 speed=0.957x    frame= 1245 fps= 30 q=29.0 size=     256kB time=00:00:39.73 bitrate=  52.8kbits/s dup=205 drop=897 speed=0.958x    frame= 1266 fps= 30 q=29.0 size=     512kB time=00:00:40.43 bitrate= 103.7kbits/s dup=225 drop=897 speed=0.959x    frame= 1288 fps= 30 q=29.0 size=     512kB time=00:00:41.16 bitrate= 101.9kbits/s dup=246 drop=897 speed=0.96x    frame= 1309 fps= 30 q=29.0 size=     512kB time=00:00:41.86 bitrate= 100.2kbits/s dup=266 drop=897 speed=0.96x    frame= 1330 fps= 30 q=29.0 size=     512kB time=00:00:42.56 bitrate=  98.5kbits/s dup=286 drop=897 speed=0.961x    frame= 1354 fps= 30 q=29.0 size=     512kB time=00:00:43.36 bitrate=  96.7kbits/s dup=309 drop=897 speed=0.961x    frame= 1380 fps= 30 q=29.0 size=     512kB time=00:00:44.23 bitrate=  94.8kbits/s dup=334 drop=897 speed=0.962x    frame= 1414 fps= 30 q=29.0 size=     512kB time=00:00:45.36 bitrate=  92.5kbits/s dup=367 drop=897 speed=0.963x    frame= 1458 fps= 30 q=29.0 size=     512kB time=00:00:46.83 bitrate=  89.6kbits/s dup=410 drop=897 speed=0.965x    frame= 1522 fps= 30 q=29.0 size=     512kB time=00:00:48.96 bitrate=  85.7kbits/s dup=473 drop=897 speed=0.966x    frame= 1552 fps= 30 q=29.0 size=     512kB time=00:00:49.96 bitrate=  83.9kbits/s dup=502 drop=897 speed=0.967x    frame= 1573 fps= 30 q=29.0 size=     512kB time=00:00:50.66 bitrate=  82.8kbits/s dup=521 drop=897 speed=0.967x    frame= 1591 fps= 30 q=29.0 size=     512kB time=00:00:51.26 bitrate=  81.8kbits/s dup=530 drop=898 speed=0.969x    frame= 1606 fps= 30 q=29.0 size=     512kB time=00:00:51.76 bitrate=  81.0kbits/s dup=530 drop=913 speed=0.969x    frame= 1621 fps= 30 q=29.0 size=     512kB time=00:00:52.26 bitrate=  80.3kbits/s dup=530 drop=928 speed=0.969x    frame= 1637 fps= 30 q=29.0 size=     512kB time=00:00:52.80 bitrate=  79.4kbits/s dup=530 drop=944 speed=0.97x    frame= 1652 fps= 30 q=29.0 size=     512kB time=00:00:53.30 bitrate=  78.7kbits/s dup=530 drop=959 speed=0.97x    frame= 1667 fps= 30 q=29.0 size=     512kB time=00:00:53.80 bitrate=  78.0kbits/s dup=530 drop=974 speed=0.97x    frame= 1683 fps= 30 q=29.0 size=     512kB time=00:00:54.33 bitrate=  77.2kbits/s dup=530 drop=990 speed=0.97x    frame= 1698 fps= 30 q=29.0 size=     512kB time=00:00:54.83 bitrate=  76.5kbits/s dup=530 drop=1005 speed=0.97x    frame= 1713 fps= 30 q=29.0 size=     768kB time=00:00:55.33 bitrate= 113.7kbits/s dup=530 drop=1019 speed=0.97x    frame= 1730 fps= 30 q=29.0 size=     768kB time=00:00:55.90 bitrate= 112.6kbits/s dup=530 drop=1027 speed=0.971x    frame= 1745 fps= 30 q=29.0 size=     768kB time=00:00:56.40 bitrate= 111.6kbits/s dup=530 drop=1042 speed=0.971x    frame= 1760 fps= 30 q=29.0 size=     768kB time=00:00:56.90 bitrate= 110.6kbits/s dup=530 drop=1057 speed=0.971x    frame= 1776 fps= 30 q=29.0 size=     768kB time=00:00:57.43 bitrate= 109.6kbits/s dup=530 drop=1073 speed=0.972x    frame= 1791 fps= 30 q=29.0 size=     768kB time=00:00:57.93 bitrate= 108.6kbits/s dup=530 drop=1088 speed=0.972x    frame= 1806 fps= 30 q=29.0 size=     768kB time=00:00:58.43 bitrate= 107.7kbits/s dup=530 drop=1103 speed=0.972x    frame= 1822 fps= 30 q=29.0 size=     768kB time=00:00:58.96 bitrate= 106.7kbits/s dup=530 drop=1119 speed=0.973x    frame= 1837 fps= 30 q=29.0 size=     768kB time=00:00:59.46 bitrate= 105.8kbits/s dup=530 drop=1134 speed=0.973x    frame= 1853 fps= 30 q=29.0 size=     768kB time=00:01:00.00 bitrate= 104.9kbits/s dup=530 drop=1150 speed=0.973x    frame= 1868 fps= 30 q=29.0 size=     768kB time=00:01:00.50 bitrate= 104.0kbits/s dup=530 drop=1165 speed=0.973x    frame= 1883 fps= 30 q=29.0 size=     768kB time=00:01:01.00 bitrate= 103.1kbits/s dup=530 drop=1180 speed=0.973x    frame= 1899 fps= 30 q=29.0 size=     768kB time=00:01:01.53 bitrate= 102.3kbits/s dup=530 drop=1194 speed=0.974x    frame= 1914 fps= 30 q=29.0 size=     768kB time=00:01:02.03 bitrate= 101.4kbits/s dup=530 drop=1209 speed=0.974x    frame= 1929 fps= 30 q=29.0 size=     768kB time=00:01:02.53 bitrate= 100.6kbits/s dup=530 drop=1224 speed=0.974x    frame= 1944 fps= 30 q=29.0 size=     768kB time=00:01:03.03 bitrate=  99.8kbits/s dup=530 drop=1239 speed=0.974x    frame= 1959 fps= 30 q=29.0 size=     768kB time=00:01:03.53 bitrate=  99.0kbits/s dup=530 drop=1254 speed=0.974x    frame= 1975 fps= 30 q=29.0 size=     768kB time=00:01:04.06 bitrate=  98.2kbits/s dup=530 drop=1270 speed=0.975x    frame= 1990 fps= 30 q=29.0 size=     768kB time=00:01:04.56 bitrate=  97.4kbits/s dup=530 drop=1285 speed=0.975x    frame= 2006 fps= 30 q=29.0 size=     768kB time=00:01:05.10 bitrate=  96.6kbits/s dup=530 drop=1301 speed=0.975x    frame= 2021 fps= 30 q=29.0 size=    1024kB time=00:01:05.60 bitrate= 127.9kbits/s dup=530 drop=1316 speed=0.975x    frame= 2036 fps= 30 q=29.0 size=    1024kB time=00:01:06.10 bitrate= 126.9kbits/s dup=530 drop=1331 speed=0.975x    frame= 2052 fps= 30 q=29.0 size=    1024kB time=00:01:06.63 bitrate= 125.9kbits/s dup=530 drop=1347 speed=0.976x    frame= 2067 fps= 30 q=26.0 size=    1024kB time=00:01:07.13 bitrate= 125.0kbits/s dup=530 drop=1362 speed=0.976x    frame= 2081 fps= 30 q=29.0 size=    1024kB time=00:01:07.60 bitrate= 124.1kbits/s dup=530 drop=1371 speed=0.975x    frame= 2097 fps= 30 q=29.0 size=    1024kB time=00:01:08.13 bitrate= 123.1kbits/s dup=531 drop=1379 speed=0.976x    frame= 2113 fps= 30 q=29.0 size=    1024kB time=00:01:08.66 bitrate= 122.2kbits/s dup=531 drop=1395 speed=0.976x    frame= 2128 fps= 30 q=29.0 size=    1024kB time=00:01:09.16 bitrate= 121.3kbits/s dup=531 drop=1410 speed=0.977x    frame= 2143 fps= 30 q=29.0 size=    1024kB time=00:01:09.66 bitrate= 120.4kbits/s dup=531 drop=1425 speed=0.977x    frame= 2159 fps= 30 q=29.0 size=    1024kB time=00:01:10.20 bitrate= 119.5kbits/s dup=531 drop=1441 speed=0.977x    frame= 2174 fps= 30 q=29.0 size=    1024kB time=00:01:10.70 bitrate= 118.7kbits/s dup=531 drop=1456 speed=0.977x    frame= 2189 fps= 30 q=29.0 size=    1024kB time=00:01:11.20 bitrate= 117.8kbits/s dup=531 drop=1471 speed=0.977x    frame= 2204 fps= 30 q=29.0 size=    1024kB time=00:01:11.70 bitrate= 117.0kbits/s dup=531 drop=1486 speed=0.977x    frame= 2219 fps= 30 q=29.0 size=    1024kB time=00:01:12.20 bitrate= 116.2kbits/s dup=531 drop=1501 speed=0.977x    frame= 2235 fps= 30 q=29.0 size=    1024kB time=00:01:12.73 bitrate= 115.3kbits/s dup=531 drop=1517 speed=0.978x    frame= 2250 fps= 30 q=29.0 size=    1024kB time=00:01:13.23 bitrate= 114.6kbits/s dup=531 drop=1532 speed=0.978x    frame= 2265 fps= 30 q=29.0 size=    1024kB time=00:01:13.73 bitrate= 113.8kbits/s dup=531 drop=1547 speed=0.978x    frame= 2281 fps= 30 q=29.0 size=    1024kB time=00:01:14.26 bitrate= 113.0kbits/s dup=531 drop=1563 speed=0.978x    frame= 2296 fps= 30 q=29.0 size=    1024kB time=00:01:14.76 bitrate= 112.2kbits/s dup=531 drop=1578 speed=0.978x    frame= 2312 fps= 30 q=29.0 size=    1024kB time=00:01:15.30 bitrate= 111.4kbits/s dup=531 drop=1594 speed=0.978x    frame= 2327 fps= 30 q=29.0 size=    1280kB time=00:01:15.80 bitrate= 138.3kbits/s dup=531 drop=1609 speed=0.979x    frame= 2342 fps= 30 q=29.0 size=    1280kB time=00:01:16.30 bitrate= 137.4kbits/s dup=531 drop=1624 speed=0.978x    frame= 2357 fps= 30 q=29.0 size=    1280kB time=00:01:16.80 bitrate= 136.5kbits/s dup=531 drop=1639 speed=0.979x    frame= 2373 fps= 30 q=29.0 size=    1280kB time=00:01:17.33 bitrate= 135.6kbits/s dup=531 drop=1655 speed=0.979x    frame= 2387 fps= 30 q=29.0 size=    1280kB time=00:01:17.80 bitrate= 134.8kbits/s dup=531 drop=1666 speed=0.979x    frame= 2403 fps= 30 q=29.0 size=    1280kB time=00:01:18.33 bitrate= 133.9kbits/s dup=531 drop=1681 speed=0.979x    frame= 2418 fps= 30 q=29.0 size=    1280kB time=00:01:18.83 bitrate= 133.0kbits/s dup=531 drop=1696 speed=0.979x    frame= 2433 fps= 30 q=29.0 size=    1280kB time=00:01:19.33 bitrate= 132.2kbits/s dup=531 drop=1711 speed=0.979x    frame= 2448 fps= 30 q=29.0 size=    1280kB time=00:01:19.83 bitrate= 131.4kbits/s dup=531 drop=1726 speed=0.979x    frame= 2463 fps= 30 q=29.0 size=    1280kB time=00:01:20.33 bitrate= 130.5kbits/s dup=531 drop=1741 speed=0.979x    frame= 2479 fps= 30 q=29.0 size=    1280kB time=00:01:20.86 bitrate= 129.7kbits/s dup=531 drop=1757 speed=0.98x    frame= 2494 fps= 30 q=29.0 size=    1280kB time=00:01:21.36 bitrate= 128.9kbits/s dup=531 drop=1771 speed=0.98x    frame= 2507 fps= 30 q=29.0 size=    1280kB time=00:01:21.80 bitrate= 128.2kbits/s dup=537 drop=1773 speed=0.979x    frame= 2525 fps= 30 q=29.0 size=    1280kB time=00:01:22.40 bitrate= 127.3kbits/s dup=539 drop=1779 speed=0.98x    frame= 2538 fps= 30 q=29.0 size=    1280kB time=00:01:22.83 bitrate= 126.6kbits/s dup=546 drop=1779 speed=0.979x    frame= 2553 fps= 30 q=29.0 size=    1280kB time=00:01:23.33 bitrate= 125.8kbits/s dup=558 drop=1779 speed=0.979x    frame= 2569 fps= 30 q=29.0 size=    1280kB time=00:01:23.86 bitrate= 125.0kbits/s dup=568 drop=1779 speed=0.98x    frame= 2586 fps= 30 q=29.0 size=    1280kB time=00:01:24.43 bitrate= 124.2kbits/s dup=583 drop=1779 speed=0.98x    frame= 2605 fps= 30 q=29.0 size=    1280kB time=00:01:25.06 bitrate= 123.3kbits/s dup=600 drop=1779 speed=0.98x    frame= 2642 fps= 30 q=29.0 size=    1280kB time=00:01:26.30 bitrate= 121.5kbits/s dup=635 drop=1779 speed=0.98x    frame= 2674 fps= 30 q=29.0 size=    1280kB time=00:01:27.36 bitrate= 120.0kbits/s dup=666 drop=1779 speed=0.981x    frame= 2715 fps= 30 q=29.0 size=    1280kB time=00:01:28.73 bitrate= 118.2kbits/s dup=706 drop=1779 speed=0.981x    frame= 2770 fps= 30 q=29.0 size=    1280kB time=00:01:30.56 bitrate= 115.8kbits/s dup=760 drop=1779 speed=0.981x    frame= 2820 fps= 30 q=29.0 size=    1536kB time=00:01:32.23 bitrate= 136.4kbits/s dup=809 drop=1779 speed=0.981x    frame= 2850 fps= 30 q=29.0 size=    1536kB time=00:01:33.23 bitrate= 135.0kbits/s dup=838 drop=1779 speed=0.982x    frame= 2868 fps= 30 q=29.0 size=    1536kB time=00:01:33.83 bitrate= 134.1kbits/s dup=854 drop=1779 speed=0.982x    frame= 2884 fps= 30 q=29.0 size=    1536kB time=00:01:34.36 bitrate= 133.3kbits/s dup=858 drop=1780 speed=0.982x    frame= 2900 fps= 30 q=29.0 size=    1536kB time=00:01:34.90 bitrate= 132.6kbits/s dup=858 drop=1794 speed=0.983x    frame= 2915 fps= 30 q=29.0 size=    1536kB time=00:01:35.40 bitrate= 131.9kbits/s dup=858 drop=1809 speed=0.983x    frame= 2931 fps= 30 q=29.0 size=    1536kB time=00:01:35.93 bitrate= 131.2kbits/s dup=858 drop=1825 speed=0.983x    frame= 2946 fps= 30 q=29.0 size=    1536kB time=00:01:36.43 bitrate= 130.5kbits/s dup=858 drop=1840 speed=0.983x    frame= 2961 fps= 30 q=29.0 size=    1536kB time=00:01:36.93 bitrate= 129.8kbits/s dup=858 drop=1855 speed=0.983x    frame= 2976 fps= 30 q=29.0 size=    1536kB time=00:01:37.43 bitrate= 129.1kbits/s dup=858 drop=1870 speed=0.983x    frame= 2991 fps= 30 q=29.0 size=    1536kB time=00:01:37.93 bitrate= 128.5kbits/s dup=858 drop=1885 speed=0.983x    frame= 3007 fps= 30 q=29.0 size=    1536kB time=00:01:38.46 bitrate= 127.8kbits/s dup=858 drop=1901 speed=0.983x    frame= 3022 fps= 30 q=29.0 size=    1536kB time=00:01:38.96 bitrate= 127.1kbits/s dup=858 drop=1916 speed=0.984x    frame= 3037 fps= 30 q=29.0 size=    1536kB time=00:01:39.46 bitrate= 126.5kbits/s dup=858 drop=1930 speed=0.983x    frame= 3053 fps= 30 q=29.0 size=    1536kB time=00:01:40.00 bitrate= 125.8kbits/s dup=858 drop=1946 speed=0.984x    frame= 3068 fps= 30 q=29.0 size=    1536kB time=00:01:40.50 bitrate= 125.2kbits/s dup=858 drop=1961 speed=0.984x    frame= 3083 fps= 30 q=29.0 size=    1536kB time=00:01:41.00 bitrate= 124.6kbits/s dup=858 drop=1976 speed=0.984x    frame= 3098 fps= 30 q=29.0 size=    1536kB time=00:01:41.50 bitrate= 124.0kbits/s dup=858 drop=1990 speed=0.984x    frame= 3113 fps= 30 q=29.0 size=    1536kB time=00:01:42.00 bitrate= 123.4kbits/s dup=858 drop=2005 speed=0.984x    frame= 3129 fps= 30 q=29.0 size=    1536kB time=00:01:42.53 bitrate= 122.7kbits/s dup=858 drop=2020 speed=0.984x    frame= 3144 fps= 30 q=29.0 size=    1536kB time=00:01:43.03 bitrate= 122.1kbits/s dup=858 drop=2035 speed=0.984x    frame= 3159 fps= 30 q=29.0 size=    1536kB time=00:01:43.53 bitrate= 121.5kbits/s dup=858 drop=2050 speed=0.984x    frame= 3174 fps= 30 q=29.0 size=    1536kB time=00:01:44.03 bitrate= 121.0kbits/s dup=858 drop=2065 speed=0.984x    frame= 3190 fps= 30 q=29.0 size=    1536kB time=00:01:44.56 bitrate= 120.3kbits/s dup=858 drop=2081 speed=0.984x    frame= 3205 fps= 30 q=29.0 size=    1536kB time=00:01:45.06 bitrate= 119.8kbits/s dup=858 drop=2095 speed=0.984x    frame= 3220 fps= 30 q=29.0 size=    1536kB time=00:01:45.56 bitrate= 119.2kbits/s dup=858 drop=2109 speed=0.984x    frame= 3236 fps= 30 q=29.0 size=    1536kB time=00:01:46.10 bitrate= 118.6kbits/s dup=858 drop=2125 speed=0.985x    frame= 3251 fps= 30 q=29.0 size=    1536kB time=00:01:46.60 bitrate= 118.0kbits/s dup=858 drop=2139 speed=0.985x    frame= 3267 fps= 30 q=29.0 size=    1536kB time=00:01:47.13 bitrate= 117.5kbits/s dup=858 drop=2154 speed=0.985x    frame= 3282 fps= 30 q=29.0 size=    1536kB time=00:01:47.63 bitrate= 116.9kbits/s dup=858 drop=2169 speed=0.985x    frame= 3297 fps= 30 q=29.0 size=    1792kB time=00:01:48.13 bitrate= 135.8kbits/s dup=858 drop=2184 speed=0.985x    frame= 3312 fps= 30 q=29.0 size=    1792kB time=00:01:48.63 bitrate= 135.1kbits/s dup=858 drop=2199 speed=0.985x    frame= 3328 fps= 30 q=29.0 size=    1792kB time=00:01:49.16 bitrate= 134.5kbits/s dup=858 drop=2215 speed=0.985x    frame= 3343 fps= 30 q=29.0 size=    1792kB time=00:01:49.66 bitrate= 133.9kbits/s dup=858 drop=2230 speed=0.985x    frame= 3358 fps= 30 q=29.0 size=    1792kB time=00:01:50.16 bitrate= 133.3kbits/s dup=858 drop=2245 speed=0.985x    frame= 3373 fps= 30 q=29.0 size=    1792kB time=00:01:50.66 bitrate= 132.7kbits/s dup=858 drop=2260 speed=0.985x    frame= 3389 fps= 30 q=29.0 size=    1792kB time=00:01:51.20 bitrate= 132.0kbits/s dup=858 drop=2276 speed=0.985x    frame= 3404 fps= 30 q=29.0 size=    1792kB time=00:01:51.70 bitrate= 131.4kbits/s dup=858 drop=2291 speed=0.985x    frame= 3420 fps= 30 q=29.0 size=    1792kB time=00:01:52.23 bitrate= 130.8kbits/s dup=858 drop=2307 speed=0.985x    frame= 3435 fps= 30 q=29.0 size=    1792kB time=00:01:52.73 bitrate= 130.2kbits/s dup=858 drop=2322 speed=0.986x    frame= 3450 fps= 30 q=29.0 size=    1792kB time=00:01:53.23 bitrate= 129.6kbits/s dup=858 drop=2337 speed=0.985x    frame= 3465 fps= 30 q=29.0 size=    1792kB time=00:01:53.73 bitrate= 129.1kbits/s dup=858 drop=2348 speed=0.985x    frame= 3481 fps= 30 q=29.0 size=    1792kB time=00:01:54.26 bitrate= 128.5kbits/s dup=858 drop=2358 speed=0.986x    frame= 3497 fps= 30 q=29.0 size=    1792kB time=00:01:54.80 bitrate= 127.9kbits/s dup=858 drop=2374 speed=0.986x    frame= 3512 fps= 30 q=29.0 size=    1792kB time=00:01:55.30 bitrate= 127.3kbits/s dup=858 drop=2389 speed=0.986x    frame= 3527 fps= 30 q=29.0 size=    1792kB time=00:01:55.80 bitrate= 126.8kbits/s dup=858 drop=2404 speed=0.986x    frame= 3542 fps= 30 q=29.0 size=    2048kB time=00:01:56.30 bitrate= 144.3kbits/s dup=858 drop=2419 speed=0.986x    frame= 3558 fps= 30 q=29.0 size=    2048kB time=00:01:56.83 bitrate= 143.6kbits/s dup=858 drop=2435 speed=0.986x    frame= 3573 fps= 30 q=29.0 size=    2048kB time=00:01:57.33 bitrate= 143.0kbits/s dup=858 drop=2450 speed=0.986x    frame= 3588 fps= 30 q=29.0 size=    2048kB time=00:01:57.83 bitrate= 142.4kbits/s dup=858 drop=2465 speed=0.986x    frame= 3603 fps= 30 q=29.0 size=    2048kB time=00:01:58.33 bitrate= 141.8kbits/s dup=858 drop=2480 speed=0.986x    frame= 3619 fps= 30 q=29.0 size=    2048kB time=00:01:58.86 bitrate= 141.1kbits/s dup=858 drop=2496 speed=0.986x    frame= 3634 fps= 30 q=29.0 size=    2048kB time=00:01:59.36 bitrate= 140.6kbits/s dup=858 drop=2511 speed=0.986x    frame= 3650 fps= 30 q=29.0 size=    2048kB time=00:01:59.90 bitrate= 139.9kbits/s dup=858 drop=2527 speed=0.986x    frame= 3665 fps= 30 q=29.0 size=    2048kB time=00:02:00.40 bitrate= 139.3kbits/s dup=858 drop=2542 speed=0.986x    frame= 3680 fps= 30 q=29.0 size=    2048kB time=00:02:00.90 bitrate= 138.8kbits/s dup=858 drop=2557 speed=0.986x    frame= 3696 fps= 30 q=29.0 size=    2048kB time=00:02:01.43 bitrate= 138.2kbits/s dup=858 drop=2573 speed=0.987x    frame= 3711 fps= 30 q=29.0 size=    2048kB time=00:02:01.93 bitrate= 137.6kbits/s dup=858 drop=2588 speed=0.987x    frame= 3726 fps= 30 q=29.0 size=    2048kB time=00:02:02.43 bitrate= 137.0kbits/s dup=858 drop=2603 speed=0.987x    frame= 3741 fps= 30 q=29.0 size=    2048kB time=00:02:02.93 bitrate= 136.5kbits/s dup=858 drop=2618 speed=0.987x    frame= 3756 fps= 30 q=29.0 size=    2048kB time=00:02:03.43 bitrate= 135.9kbits/s dup=858 drop=2633 speed=0.987x    frame= 3772 fps= 30 q=29.0 size=    2048kB time=00:02:03.96 bitrate= 135.3kbits/s dup=858 drop=2649 speed=0.987x    frame= 3787 fps= 30 q=29.0 size=    2048kB time=00:02:04.46 bitrate= 134.8kbits/s dup=858 drop=2664 speed=0.987x    frame= 3802 fps= 30 q=29.0 size=    2048kB time=00:02:04.96 bitrate= 134.3kbits/s dup=858 drop=2679 speed=0.987x    frame= 3817 fps= 30 q=29.0 size=    2048kB time=00:02:05.46 bitrate= 133.7kbits/s dup=858 drop=2694 speed=0.987x    frame= 3831 fps= 30 q=29.0 size=    2048kB time=00:02:05.93 bitrate= 133.2kbits/s dup=858 drop=2708 speed=0.987x    frame= 3848 fps= 30 q=29.0 size=    2048kB time=00:02:06.50 bitrate= 132.6kbits/s dup=858 drop=2714 speed=0.987x    frame= 3863 fps= 30 q=29.0 size=    2048kB time=00:02:07.00 bitrate= 132.1kbits/s dup=858 drop=2729 speed=0.987x    frame= 3879 fps= 30 q=29.0 size=    2048kB time=00:02:07.53 bitrate= 131.6kbits/s dup=858 drop=2745 speed=0.987x    frame= 3894 fps= 30 q=29.0 size=    2304kB time=00:02:08.03 bitrate= 147.4kbits/s dup=858 drop=2760 speed=0.987x    frame= 3909 fps= 30 q=29.0 size=    2304kB time=00:02:08.53 bitrate= 146.8kbits/s dup=858 drop=2775 speed=0.987x    frame= 3924 fps= 30 q=29.0 size=    2304kB time=00:02:09.03 bitrate= 146.3kbits/s dup=858 drop=2790 speed=0.987x    frame= 3940 fps= 30 q=29.0 size=    2304kB time=00:02:09.56 bitrate= 145.7kbits/s dup=858 drop=2806 speed=0.987x    frame= 3955 fps= 30 q=29.0 size=    2304kB time=00:02:10.06 bitrate= 145.1kbits/s dup=858 drop=2821 speed=0.987x    frame= 3971 fps= 30 q=29.0 size=    2304kB time=00:02:10.60 bitrate= 144.5kbits/s dup=858 drop=2837 speed=0.987x    frame= 3986 fps= 30 q=29.0 size=    2304kB time=00:02:11.10 bitrate= 144.0kbits/s dup=858 drop=2852 speed=0.987x    frame= 4001 fps= 30 q=29.0 size=    2304kB time=00:02:11.60 bitrate= 143.4kbits/s dup=858 drop=2867 speed=0.987x    frame= 4017 fps= 30 q=29.0 size=    2304kB time=00:02:12.13 bitrate= 142.8kbits/s dup=858 drop=2883 speed=0.988x    frame= 4032 fps= 30 q=29.0 size=    2304kB time=00:02:12.63 bitrate= 142.3kbits/s dup=858 drop=2898 speed=0.987x    frame= 4048 fps= 30 q=29.0 size=    2304kB time=00:02:13.16 bitrate= 141.7kbits/s dup=858 drop=2914 speed=0.988x    frame= 4063 fps= 30 q=29.0 size=    2304kB time=00:02:13.66 bitrate= 141.2kbits/s dup=858 drop=2929 speed=0.988x    frame= 4078 fps= 30 q=29.0 size=    2304kB time=00:02:14.16 bitrate= 140.7kbits/s dup=858 drop=2944 speed=0.988x    frame= 4094 fps= 30 q=29.0 size=    2304kB time=00:02:14.70 bitrate= 140.1kbits/s dup=858 drop=2960 speed=0.988x    frame= 4109 fps= 30 q=29.0 size=    2304kB time=00:02:15.20 bitrate= 139.6kbits/s dup=858 drop=2975 speed=0.988x    frame= 4124 fps= 30 q=29.0 size=    2304kB time=00:02:15.70 bitrate= 139.1kbits/s dup=858 drop=2990 speed=0.988x    frame= 4140 fps= 30 q=29.0 size=    2304kB time=00:02:16.23 bitrate= 138.5kbits/s dup=858 drop=3003 speed=0.988x    frame= 4155 fps= 30 q=29.0 size=    2304kB time=00:02:16.73 bitrate= 138.0kbits/s dup=858 drop=3015 speed=0.988x    frame= 4170 fps= 30 q=29.0 size=    2304kB time=00:02:17.23 bitrate= 137.5kbits/s dup=858 drop=3024 speed=0.988x    frame= 4186 fps= 30 q=29.0 size=    2304kB time=00:02:17.76 bitrate= 137.0kbits/s dup=858 drop=3040 speed=0.988x    frame= 4201 fps= 30 q=29.0 size=    2304kB time=00:02:18.26 bitrate= 136.5kbits/s dup=858 drop=3055 speed=0.988x    frame= 4216 fps= 30 q=29.0 size=    2304kB time=00:02:18.76 bitrate= 136.0kbits/s dup=858 drop=3070 speed=0.988x    frame= 4232 fps= 30 q=29.0 size=    2560kB time=00:02:19.30 bitrate= 150.6kbits/s dup=858 drop=3086 speed=0.988x    frame= 4247 fps= 30 q=29.0 size=    2560kB time=00:02:19.80 bitrate= 150.0kbits/s dup=858 drop=3101 speed=0.988x    frame= 4262 fps= 30 q=29.0 size=    2560kB time=00:02:20.30 bitrate= 149.5kbits/s dup=858 drop=3116 speed=0.988x    frame= 4277 fps= 30 q=29.0 size=    2560kB time=00:02:20.80 bitrate= 148.9kbits/s dup=858 drop=3131 speed=0.988x    frame= 4292 fps= 30 q=29.0 size=    2560kB time=00:02:21.30 bitrate= 148.4kbits/s dup=858 drop=3143 speed=0.988x    frame= 4307 fps= 30 q=29.0 size=    2560kB time=00:02:21.80 bitrate= 147.9kbits/s dup=860 drop=3149 speed=0.988x    frame= 4325 fps= 30 q=29.0 size=    2560kB time=00:02:22.40 bitrate= 147.3kbits/s dup=868 drop=3149 speed=0.988x    frame= 4341 fps= 30 q=29.0 size=    2560kB time=00:02:22.93 bitrate= 146.7kbits/s dup=878 drop=3149 speed=0.988x    frame= 4358 fps= 30 q=29.0 size=    2560kB time=00:02:23.50 bitrate= 146.1kbits/s dup=884 drop=3152 speed=0.988x    frame= 4377 fps= 30 q=29.0 size=    2560kB time=00:02:24.13 bitrate= 145.5kbits/s dup=896 drop=3157 speed=0.988x    frame= 4393 fps= 30 q=29.0 size=    2560kB time=00:02:24.66 bitrate= 145.0kbits/s dup=910 drop=3157 speed=0.988x    frame= 4411 fps= 30 q=29.0 size=    2560kB time=00:02:25.26 bitrate= 144.4kbits/s dup=927 drop=3157 speed=0.988x    frame= 4440 fps= 30 q=29.0 size=    2560kB time=00:02:26.23 bitrate= 143.4kbits/s dup=955 drop=3157 speed=0.988x    frame= 4483 fps= 30 q=29.0 size=    2560kB time=00:02:27.66 bitrate= 142.0kbits/s dup=997 drop=3157 speed=0.988x    More than 1000 frames duplicated
frame= 4534 fps= 30 q=29.0 size=    2560kB time=00:02:29.36 bitrate= 140.4kbits/s dup=1047 drop=3157 speed=0.988x    frame= 4565 fps= 30 q=29.0 size=    2560kB time=00:02:30.40 bitrate= 139.4kbits/s dup=1077 drop=3157 speed=0.988x    frame= 4587 fps= 30 q=29.0 size=    2816kB time=00:02:31.13 bitrate= 152.6kbits/s dup=1097 drop=3157 speed=0.989x    frame= 4605 fps= 30 q=29.0 size=    2816kB time=00:02:31.73 bitrate= 152.0kbits/s dup=1100 drop=3165 speed=0.989x    frame= 4620 fps= 30 q=29.0 size=    2816kB time=00:02:32.23 bitrate= 151.5kbits/s dup=1100 drop=3175 speed=0.989x    frame= 4635 fps= 30 q=29.0 size=    2816kB time=00:02:32.73 bitrate= 151.0kbits/s dup=1100 drop=3190 speed=0.989x    frame= 4651 fps= 30 q=29.0 size=    2816kB time=00:02:33.26 bitrate= 150.5kbits/s dup=1100 drop=3206 speed=0.989x    frame= 4666 fps= 30 q=29.0 size=    2816kB time=00:02:33.76 bitrate= 150.0kbits/s dup=1100 drop=3221 speed=0.989x    frame= 4681 fps= 30 q=29.0 size=    2816kB time=00:02:34.26 bitrate= 149.5kbits/s dup=1100 drop=3236 speed=0.989x    frame= 4696 fps= 30 q=29.0 size=    2816kB time=00:02:34.76 bitrate= 149.1kbits/s dup=1100 drop=3251 speed=0.989x    frame= 4711 fps= 30 q=29.0 size=    2816kB time=00:02:35.26 bitrate= 148.6kbits/s dup=1100 drop=3266 speed=0.989x    frame= 4727 fps= 30 q=29.0 size=    2816kB time=00:02:35.80 bitrate= 148.1kbits/s dup=1100 drop=3282 speed=0.989x    frame= 4742 fps= 30 q=29.0 size=    2816kB time=00:02:36.30 bitrate= 147.6kbits/s dup=1100 drop=3297 speed=0.989x    frame= 4757 fps= 30 q=29.0 size=    2816kB time=00:02:36.80 bitrate= 147.1kbits/s dup=1100 drop=3312 speed=0.989x    frame= 4773 fps= 30 q=29.0 size=    2816kB time=00:02:37.33 bitrate= 146.6kbits/s dup=1100 drop=3328 speed=0.99x    frame= 4788 fps= 30 q=29.0 size=    2816kB time=00:02:37.83 bitrate= 146.2kbits/s dup=1100 drop=3343 speed=0.99x    frame= 4803 fps= 30 q=29.0 size=    2816kB time=00:02:38.33 bitrate= 145.7kbits/s dup=1100 drop=3358 speed=0.99x    frame= 4818 fps= 30 q=29.0 size=    2816kB time=00:02:38.83 bitrate= 145.2kbits/s dup=1100 drop=3373 speed=0.99x    frame= 4834 fps= 30 q=29.0 size=    2816kB time=00:02:39.36 bitrate= 144.8kbits/s dup=1100 drop=3389 speed=0.99x    frame= 4849 fps= 30 q=29.0 size=    2816kB time=00:02:39.86 bitrate= 144.3kbits/s dup=1100 drop=3404 speed=0.99x    frame= 4865 fps= 30 q=29.0 size=    2816kB time=00:02:40.40 bitrate= 143.8kbits/s dup=1100 drop=3420 speed=0.99x    frame= 4880 fps= 30 q=29.0 size=    2816kB time=00:02:40.90 bitrate= 143.4kbits/s dup=1100 drop=3435 speed=0.99x    frame= 4895 fps= 30 q=29.0 size=    2816kB time=00:02:41.40 bitrate= 142.9kbits/s dup=1100 drop=3450 speed=0.99x    frame= 4911 fps= 30 q=29.0 size=    2816kB time=00:02:41.93 bitrate= 142.5kbits/s dup=1100 drop=3466 speed=0.99x    frame= 4926 fps= 30 q=29.0 size=    2816kB time=00:02:42.43 bitrate= 142.0kbits/s dup=1100 drop=3481 speed=0.99x    frame= 4941 fps= 30 q=29.0 size=    2816kB time=00:02:42.93 bitrate= 141.6kbits/s dup=1100 drop=3496 speed=0.99x    frame= 4956 fps= 30 q=29.0 size=    2816kB time=00:02:43.43 bitrate= 141.2kbits/s dup=1100 drop=3511 speed=0.99x    frame= 4971 fps= 30 q=29.0 size=    2816kB time=00:02:43.93 bitrate= 140.7kbits/s dup=1113 drop=3511 speed=0.99x    frame= 4988 fps= 30 q=29.0 size=    2816kB time=00:02:44.50 bitrate= 140.2kbits/s dup=1123 drop=3511 speed=0.99x    frame= 5003 fps= 30 q=29.0 size=    2816kB time=00:02:45.00 bitrate= 139.8kbits/s dup=1123 drop=3526 speed=0.99x    frame= 5018 fps= 30 q=29.0 size=    2816kB time=00:02:45.50 bitrate= 139.4kbits/s dup=1123 drop=3541 speed=0.99x    frame= 5033 fps= 30 q=29.0 size=    2816kB time=00:02:46.00 bitrate= 139.0kbits/s dup=1123 drop=3556 speed=0.99x    frame= 5048 fps= 30 q=29.0 size=    2816kB time=00:02:46.50 bitrate= 138.6kbits/s dup=1123 drop=3571 speed=0.99x    frame= 5063 fps= 30 q=29.0 size=    2816kB time=00:02:47.00 bitrate= 138.1kbits/s dup=1123 drop=3586 speed=0.99x    frame= 5078 fps= 30 q=29.0 size=    2816kB time=00:02:47.50 bitrate= 137.7kbits/s dup=1123 drop=3601 speed=0.99x    frame= 5094 fps= 30 q=29.0 size=    3072kB time=00:02:48.03 bitrate= 149.8kbits/s dup=1123 drop=3617 speed=0.99x    frame= 5109 fps= 30 q=29.0 size=    3072kB time=00:02:48.53 bitrate= 149.3kbits/s dup=1123 drop=3632 speed=0.99x    frame= 5124 fps= 30 q=29.0 size=    3072kB time=00:02:49.03 bitrate= 148.9kbits/s dup=1123 drop=3647 speed=0.99x    frame= 5139 fps= 30 q=29.0 size=    3072kB time=00:02:49.53 bitrate= 148.4kbits/s dup=1123 drop=3662 speed=0.99x    frame= 5155 fps= 30 q=29.0 size=    3072kB time=00:02:50.06 bitrate= 148.0kbits/s dup=1123 drop=3678 speed=0.99x    frame= 5169 fps= 30 q=29.0 size=    3072kB time=00:02:50.53 bitrate= 147.6kbits/s dup=1123 drop=3690 speed=0.99x    frame= 5186 fps= 30 q=29.0 size=    3072kB time=00:02:51.10 bitrate= 147.1kbits/s dup=1123 drop=3703 speed=0.99x    frame= 5201 fps= 30 q=29.0 size=    3072kB time=00:02:51.60 bitrate= 146.7kbits/s dup=1123 drop=3718 speed=0.99x    frame= 5216 fps= 30 q=29.0 size=    3072kB time=00:02:52.10 bitrate= 146.2kbits/s dup=1123 drop=3733 speed=0.99x    frame= 5232 fps= 30 q=29.0 size=    3072kB time=00:02:52.63 bitrate= 145.8kbits/s dup=1123 drop=3749 speed=0.991x    frame= 5247 fps= 30 q=29.0 size=    3072kB time=00:02:53.13 bitrate= 145.4kbits/s dup=1123 drop=3764 speed=0.99x    frame= 5263 fps= 30 q=29.0 size=    3072kB time=00:02:53.66 bitrate= 144.9kbits/s dup=1123 drop=3780 speed=0.991x    frame= 5278 fps= 30 q=29.0 size=    3072kB time=00:02:54.16 bitrate= 144.5kbits/s dup=1123 drop=3795 speed=0.991x    frame= 5294 fps= 30 q=29.0 size=    3072kB time=00:02:54.70 bitrate= 144.1kbits/s dup=1123 drop=3811 speed=0.991x    frame= 5309 fps= 30 q=29.0 size=    3072kB time=00:02:55.20 bitrate= 143.6kbits/s dup=1123 drop=3826 speed=0.991x    frame= 5324 fps= 30 q=29.0 size=    3072kB time=00:02:55.70 bitrate= 143.2kbits/s dup=1123 drop=3841 speed=0.991x    frame= 5339 fps= 30 q=29.0 size=    3328kB time=00:02:56.20 bitrate= 154.7kbits/s dup=1123 drop=3856 speed=0.991x    frame= 5354 fps= 30 q=29.0 size=    3328kB time=00:02:56.70 bitrate= 154.3kbits/s dup=1123 drop=3870 speed=0.991x    frame= 5369 fps= 30 q=29.0 size=    3328kB time=00:02:57.20 bitrate= 153.9kbits/s dup=1123 drop=3885 speed=0.991x    frame= 5385 fps= 30 q=29.0 size=    3328kB time=00:02:57.73 bitrate= 153.4kbits/s dup=1123 drop=3901 speed=0.991x    frame= 5400 fps= 30 q=29.0 size=    3328kB time=00:02:58.23 bitrate= 153.0kbits/s dup=1123 drop=3916 speed=0.991x    frame= 5416 fps= 30 q=29.0 size=    3328kB time=00:02:58.76 bitrate= 152.5kbits/s dup=1123 drop=3932 speed=0.991x    frame= 5431 fps= 30 q=29.0 size=    3328kB time=00:02:59.26 bitrate= 152.1kbits/s dup=1123 drop=3947 speed=0.991x    frame= 5446 fps= 30 q=29.0 size=    3328kB time=00:02:59.76 bitrate= 151.7kbits/s dup=1123 drop=3962 speed=0.991x    frame= 5461 fps= 30 q=29.0 size=    3328kB time=00:03:00.26 bitrate= 151.2kbits/s dup=1123 drop=3977 speed=0.991x    frame= 5477 fps= 30 q=29.0 size=    3328kB time=00:03:00.80 bitrate= 150.8kbits/s dup=1123 drop=3993 speed=0.991x    frame= 5492 fps= 30 q=29.0 size=    3328kB time=00:03:01.30 bitrate= 150.4kbits/s dup=1123 drop=4008 speed=0.991x    frame= 5507 fps= 30 q=29.0 size=    3328kB time=00:03:01.80 bitrate= 150.0kbits/s dup=1123 drop=4023 speed=0.991x    frame= 5522 fps= 30 q=29.0 size=    3328kB time=00:03:02.30 bitrate= 149.6kbits/s dup=1123 drop=4038 speed=0.991x    frame= 5536 fps= 30 q=29.0 size=    3328kB time=00:03:02.76 bitrate= 149.2kbits/s dup=1123 drop=4050 speed=0.991x    frame= 5553 fps= 30 q=29.0 size=    3328kB time=00:03:03.33 bitrate= 148.7kbits/s dup=1123 drop=4060 speed=0.991x    frame= 5568 fps= 30 q=29.0 size=    3328kB time=00:03:03.83 bitrate= 148.3kbits/s dup=1123 drop=4075 speed=0.991x    frame= 5584 fps= 30 q=29.0 size=    3328kB time=00:03:04.36 bitrate= 147.9kbits/s dup=1123 drop=4091 speed=0.991x    frame= 5599 fps= 30 q=29.0 size=    3328kB time=00:03:04.86 bitrate= 147.5kbits/s dup=1123 drop=4106 speed=0.991x    frame= 5615 fps= 30 q=29.0 size=    3328kB time=00:03:05.40 bitrate= 147.1kbits/s dup=1123 drop=4122 speed=0.991x    frame= 5630 fps= 30 q=29.0 size=    3328kB time=00:03:05.90 bitrate= 146.7kbits/s dup=1123 drop=4137 speed=0.991x    frame= 5645 fps= 30 q=29.0 size=    3328kB time=00:03:06.40 bitrate= 146.3kbits/s dup=1123 drop=4152 speed=0.991x    frame= 5661 fps= 30 q=29.0 size=    3328kB time=00:03:06.93 bitrate= 145.8kbits/s dup=1123 drop=4168 speed=0.991x    frame= 5676 fps= 30 q=29.0 size=    3328kB time=00:03:07.43 bitrate= 145.5kbits/s dup=1123 drop=4183 speed=0.991x    frame= 5691 fps= 30 q=29.0 size=    3328kB time=00:03:07.93 bitrate= 145.1kbits/s dup=1123 drop=4198 speed=0.991x    frame= 5707 fps= 30 q=29.0 size=    3328kB time=00:03:08.46 bitrate= 144.7kbits/s dup=1123 drop=4214 speed=0.991x    frame= 5722 fps= 30 q=29.0 size=    3328kB time=00:03:08.96 bitrate= 144.3kbits/s dup=1123 drop=4229 speed=0.991x    frame= 5737 fps= 30 q=29.0 size=    3328kB time=00:03:09.46 bitrate= 143.9kbits/s dup=1123 drop=4244 speed=0.991x    frame= 5753 fps= 30 q=29.0 size=    3328kB time=00:03:10.00 bitrate= 143.5kbits/s dup=1123 drop=4260 speed=0.991x    frame= 5768 fps= 30 q=29.0 size=    3328kB time=00:03:10.50 bitrate= 143.1kbits/s dup=1123 drop=4275 speed=0.991x    frame= 5783 fps= 30 q=29.0 size=    3328kB time=00:03:11.00 bitrate= 142.7kbits/s dup=1123 drop=4290 speed=0.991x    frame= 5799 fps= 30 q=29.0 size=    3328kB time=00:03:11.53 bitrate= 142.3kbits/s dup=1123 drop=4306 speed=0.991x    frame= 5812 fps= 30 q=29.0 size=    3584kB time=00:03:11.96 bitrate= 152.9kbits/s dup=1123 drop=4319 speed=0.991x    frame= 5831 fps= 30 q=29.0 size=    3584kB time=00:03:12.60 bitrate= 152.4kbits/s dup=1124 drop=4332 speed=0.991x    frame= 5848 fps= 30 q=29.0 size=    3584kB time=00:03:13.16 bitrate= 152.0kbits/s dup=1133 drop=4332 speed=0.991x    frame= 5865 fps= 30 q=29.0 size=    3584kB time=00:03:13.73 bitrate= 151.6kbits/s dup=1133 drop=4344 speed=0.991x    frame= 5880 fps= 30 q=29.0 size=    3584kB time=00:03:14.23 bitrate= 151.2kbits/s dup=1133 drop=4359 speed=0.991x    frame= 5895 fps= 30 q=29.0 size=    3584kB time=00:03:14.73 bitrate= 150.8kbits/s dup=1133 drop=4374 speed=0.991x    frame= 5910 fps= 30 q=29.0 size=    3584kB time=00:03:15.23 bitrate= 150.4kbits/s dup=1133 drop=4389 speed=0.991x    frame= 5926 fps= 30 q=29.0 size=    3584kB time=00:03:15.76 bitrate= 150.0kbits/s dup=1133 drop=4401 speed=0.992x    frame= 5939 fps= 30 q=29.0 size=    3584kB time=00:03:16.20 bitrate= 149.6kbits/s dup=1134 drop=4402 speed=0.991x    frame= 5956 fps= 30 q=29.0 size=    3584kB time=00:03:16.76 bitrate= 149.2kbits/s dup=1134 drop=4411 speed=0.992x    frame= 5972 fps= 30 q=29.0 size=    3584kB time=00:03:17.30 bitrate= 148.8kbits/s dup=1135 drop=4418 speed=0.992x    frame= 5988 fps= 30 q=29.0 size=    3584kB time=00:03:17.83 bitrate= 148.4kbits/s dup=1135 drop=4432 speed=0.992x    frame= 6003 fps= 30 q=29.0 size=    3840kB time=00:03:18.33 bitrate= 158.6kbits/s dup=1135 drop=4441 speed=0.992x    frame= 6018 fps= 30 q=29.0 size=    3840kB time=00:03:18.83 bitrate= 158.2kbits/s dup=1135 drop=4456 speed=0.992x    frame= 6033 fps= 30 q=29.0 size=    3840kB time=00:03:19.33 bitrate= 157.8kbits/s dup=1135 drop=4470 speed=0.992x    frame= 6048 fps= 30 q=29.0 size=    3840kB time=00:03:19.83 bitrate= 157.4kbits/s dup=1135 drop=4483 speed=0.992x    frame= 6064 fps= 30 q=29.0 size=    3840kB time=00:03:20.36 bitrate= 157.0kbits/s dup=1135 drop=4495 speed=0.992x    frame= 6078 fps= 30 q=29.0 size=    3840kB time=00:03:20.83 bitrate= 156.6kbits/s dup=1135 drop=4496 speed=0.991x    frame= 6100 fps= 30 q=29.0 size=    3840kB time=00:03:21.56 bitrate= 156.1kbits/s dup=1141 drop=4496 speed=0.991x    frame= 6117 fps= 30 q=29.0 size=    3840kB time=00:03:22.13 bitrate= 155.6kbits/s dup=1143 drop=4503 speed=0.992x    frame= 6132 fps= 30 q=29.0 size=    3840kB time=00:03:22.63 bitrate= 155.2kbits/s dup=1143 drop=4518 speed=0.992x    frame= 6147 fps= 30 q=29.0 size=    3840kB time=00:03:23.13 bitrate= 154.9kbits/s dup=1143 drop=4533 speed=0.992x    frame= 6163 fps= 30 q=29.0 size=    3840kB time=00:03:23.66 bitrate= 154.5kbits/s dup=1143 drop=4549 speed=0.992x    frame= 6178 fps= 30 q=29.0 size=    3840kB time=00:03:24.16 bitrate= 154.1kbits/s dup=1143 drop=4564 speed=0.992x    frame= 6193 fps= 30 q=29.0 size=    3840kB time=00:03:24.66 bitrate= 153.7kbits/s dup=1143 drop=4579 speed=0.992x    frame= 6209 fps= 30 q=29.0 size=    3840kB time=00:03:25.20 bitrate= 153.3kbits/s dup=1143 drop=4595 speed=0.992x    frame= 6224 fps= 30 q=29.0 size=    3840kB time=00:03:25.70 bitrate= 152.9kbits/s dup=1143 drop=4610 speed=0.992x    frame= 6239 fps= 30 q=29.0 size=    3840kB time=00:03:26.20 bitrate= 152.6kbits/s dup=1143 drop=4625 speed=0.992x    frame= 6255 fps= 30 q=29.0 size=    3840kB time=00:03:26.73 bitrate= 152.2kbits/s dup=1143 drop=4641 speed=0.992x    frame= 6270 fps= 30 q=29.0 size=    3840kB time=00:03:27.23 bitrate= 151.8kbits/s dup=1143 drop=4656 speed=0.992x    frame= 6285 fps= 30 q=29.0 size=    3840kB time=00:03:27.73 bitrate= 151.4kbits/s dup=1143 drop=4671 speed=0.992x    frame= 6301 fps= 30 q=29.0 size=    3840kB time=00:03:28.26 bitrate= 151.0kbits/s dup=1143 drop=4687 speed=0.992x    frame= 6316 fps= 30 q=29.0 size=    3840kB time=00:03:28.76 bitrate= 150.7kbits/s dup=1143 drop=4702 speed=0.992x    frame= 6331 fps= 30 q=29.0 size=    3840kB time=00:03:29.26 bitrate= 150.3kbits/s dup=1143 drop=4717 speed=0.992x    frame= 6346 fps= 30 q=29.0 size=    3840kB time=00:03:29.76 bitrate= 150.0kbits/s dup=1143 drop=4732 speed=0.992x    frame= 6361 fps= 30 q=29.0 size=    3840kB time=00:03:30.26 bitrate= 149.6kbits/s dup=1143 drop=4747 speed=0.992x    frame= 6377 fps= 30 q=29.0 size=    3840kB time=00:03:30.80 bitrate= 149.2kbits/s dup=1143 drop=4763 speed=0.992x    frame= 6392 fps= 30 q=29.0 size=    3840kB time=00:03:31.30 bitrate= 148.9kbits/s dup=1143 drop=4778 speed=0.992x    frame= 6407 fps= 30 q=29.0 size=    3840kB time=00:03:31.80 bitrate= 148.5kbits/s dup=1143 drop=4793 speed=0.992x    frame= 6423 fps= 30 q=29.0 size=    3840kB time=00:03:32.33 bitrate= 148.2kbits/s dup=1143 drop=4809 speed=0.992x    frame= 6438 fps= 30 q=29.0 size=    3840kB time=00:03:32.83 bitrate= 147.8kbits/s dup=1143 drop=4824 speed=0.992x    frame= 6454 fps= 30 q=29.0 size=    3840kB time=00:03:33.36 bitrate= 147.4kbits/s dup=1143 drop=4840 speed=0.992x    frame= 6469 fps= 30 q=29.0 size=    3840kB time=00:03:33.86 bitrate= 147.1kbits/s dup=1143 drop=4855 speed=0.992x    frame= 6484 fps= 30 q=29.0 size=    3840kB time=00:03:34.36 bitrate= 146.7kbits/s dup=1143 drop=4870 speed=0.992x    frame= 6499 fps= 30 q=29.0 size=    3840kB time=00:03:34.86 bitrate= 146.4kbits/s dup=1143 drop=4885 speed=0.992x    frame= 6515 fps= 30 q=29.0 size=    3840kB time=00:03:35.40 bitrate= 146.0kbits/s dup=1143 drop=4901 speed=0.992x    frame= 6530 fps= 30 q=29.0 size=    3840kB time=00:03:35.90 bitrate= 145.7kbits/s dup=1143 drop=4916 speed=0.992x    frame= 6545 fps= 30 q=29.0 size=    3840kB time=00:03:36.40 bitrate= 145.4kbits/s dup=1143 drop=4931 speed=0.992x    frame= 6560 fps= 30 q=29.0 size=    3840kB time=00:03:36.90 bitrate= 145.0kbits/s dup=1143 drop=4946 speed=0.992x    frame= 6575 fps= 30 q=29.0 size=    3840kB time=00:03:37.40 bitrate= 144.7kbits/s dup=1143 drop=4961 speed=0.992x    frame= 6591 fps= 30 q=29.0 size=    4096kB time=00:03:37.93 bitrate= 154.0kbits/s dup=1143 drop=4977 speed=0.992x    frame= 6606 fps= 30 q=29.0 size=    4096kB time=00:03:38.43 bitrate= 153.6kbits/s dup=1143 drop=4992 speed=0.992x    frame= 6621 fps= 30 q=29.0 size=    4096kB time=00:03:38.93 bitrate= 153.3kbits/s dup=1143 drop=5007 speed=0.992x    frame= 6636 fps= 30 q=29.0 size=    4096kB time=00:03:39.43 bitrate= 152.9kbits/s dup=1143 drop=5022 speed=0.992x    frame= 6651 fps= 30 q=29.0 size=    4096kB time=00:03:39.93 bitrate= 152.6kbits/s dup=1143 drop=5037 speed=0.992x    frame= 6667 fps= 30 q=29.0 size=    4096kB time=00:03:40.46 bitrate= 152.2kbits/s dup=1143 drop=5053 speed=0.993x    frame= 6682 fps= 30 q=29.0 size=    4096kB time=00:03:40.96 bitrate= 151.9kbits/s dup=1143 drop=5068 speed=0.992x    frame= 6698 fps= 30 q=29.0 size=    4096kB time=00:03:41.50 bitrate= 151.5kbits/s dup=1143 drop=5084 speed=0.993x    frame= 6713 fps= 30 q=29.0 size=    4096kB time=00:03:42.00 bitrate= 151.1kbits/s dup=1143 drop=5099 speed=0.993x    frame= 6728 fps= 30 q=29.0 size=    4096kB time=00:03:42.50 bitrate= 150.8kbits/s dup=1143 drop=5114 speed=0.993x    frame= 6743 fps= 30 q=29.0 size=    4096kB time=00:03:43.00 bitrate= 150.5kbits/s dup=1143 drop=5129 speed=0.993x    frame= 6757 fps= 30 q=29.0 size=    4096kB time=00:03:43.46 bitrate= 150.2kbits/s dup=1144 drop=5132 speed=0.992x    frame= 6774 fps= 30 q=29.0 size=    4096kB time=00:03:44.03 bitrate= 149.8kbits/s dup=1144 drop=5143 speed=0.993x    frame= 6789 fps= 30 q=29.0 size=    4096kB time=00:03:44.53 bitrate= 149.4kbits/s dup=1144 drop=5158 speed=0.993x    frame= 6804 fps= 30 q=29.0 size=    4096kB time=00:03:45.03 bitrate= 149.1kbits/s dup=1144 drop=5173 speed=0.993x    frame= 6820 fps= 30 q=29.0 size=    4096kB time=00:03:45.56 bitrate= 148.8kbits/s dup=1144 drop=5189 speed=0.993x    frame= 6835 fps= 30 q=29.0 size=    4096kB time=00:03:46.06 bitrate= 148.4kbits/s dup=1144 drop=5204 speed=0.993x    frame= 6851 fps= 30 q=29.0 size=    4096kB time=00:03:46.60 bitrate= 148.1kbits/s dup=1144 drop=5220 speed=0.993x    frame= 6866 fps= 30 q=29.0 size=    4096kB time=00:03:47.10 bitrate= 147.8kbits/s dup=1144 drop=5235 speed=0.993x    frame= 6881 fps= 30 q=29.0 size=    4096kB time=00:03:47.60 bitrate= 147.4kbits/s dup=1144 drop=5250 speed=0.993x    frame= 6897 fps= 30 q=29.0 size=    4096kB time=00:03:48.13 bitrate= 147.1kbits/s dup=1144 drop=5266 speed=0.993x    frame= 6912 fps= 30 q=29.0 size=    4096kB time=00:03:48.63 bitrate= 146.8kbits/s dup=1144 drop=5281 speed=0.993x    frame= 6928 fps= 30 q=29.0 size=    4096kB time=00:03:49.16 bitrate= 146.4kbits/s dup=1145 drop=5289 speed=0.992x    frame= 6946 fps= 30 q=29.0 size=    4096kB time=00:03:49.76 bitrate= 146.0kbits/s dup=1146 drop=5299 speed=0.993x    frame= 6961 fps= 30 q=29.0 size=    4096kB time=00:03:50.26 bitrate= 145.7kbits/s dup=1146 drop=5314 speed=0.993x    frame= 6976 fps= 30 q=29.0 size=    4352kB time=00:03:50.76 bitrate= 154.5kbits/s dup=1146 drop=5329 speed=0.993x    frame= 6991 fps= 30 q=29.0 size=    4352kB time=00:03:51.26 bitrate= 154.2kbits/s dup=1146 drop=5344 speed=0.993x    frame= 7006 fps= 30 q=29.0 size=    4352kB time=00:03:51.76 bitrate= 153.8kbits/s dup=1146 drop=5359 speed=0.993x    frame= 7021 fps= 30 q=29.0 size=    4352kB time=00:03:52.26 bitrate= 153.5kbits/s dup=1146 drop=5374 speed=0.993x    frame= 7037 fps= 30 q=29.0 size=    4352kB time=00:03:52.80 bitrate= 153.1kbits/s dup=1146 drop=5390 speed=0.993x    frame= 7052 fps= 30 q=29.0 size=    4352kB time=00:03:53.30 bitrate= 152.8kbits/s dup=1146 drop=5405 speed=0.993x    frame= 7068 fps= 30 q=29.0 size=    4352kB time=00:03:53.83 bitrate= 152.5kbits/s dup=1146 drop=5421 speed=0.993x    frame= 7083 fps= 30 q=29.0 size=    4352kB time=00:03:54.33 bitrate= 152.1kbits/s dup=1146 drop=5436 speed=0.993x    frame= 7098 fps= 30 q=29.0 size=    4352kB time=00:03:54.83 bitrate= 151.8kbits/s dup=1146 drop=5451 speed=0.993x    frame= 7113 fps= 30 q=29.0 size=    4352kB time=00:03:55.33 bitrate= 151.5kbits/s dup=1146 drop=5466 speed=0.993x    frame= 7129 fps= 30 q=29.0 size=    4352kB time=00:03:55.86 bitrate= 151.2kbits/s dup=1146 drop=5482 speed=0.993x    frame= 7144 fps= 30 q=29.0 size=    4352kB time=00:03:56.36 bitrate= 150.8kbits/s dup=1146 drop=5497 speed=0.993x    frame= 7160 fps= 30 q=29.0 size=    4352kB time=00:03:56.90 bitrate= 150.5kbits/s dup=1146 drop=5511 speed=0.993x    frame= 7175 fps= 30 q=29.0 size=    4352kB time=00:03:57.40 bitrate= 150.2kbits/s dup=1146 drop=5526 speed=0.993x    frame= 7190 fps= 30 q=29.0 size=    4352kB time=00:03:57.90 bitrate= 149.9kbits/s dup=1146 drop=5539 speed=0.993x    frame= 7205 fps= 30 q=29.0 size=    4352kB time=00:03:58.40 bitrate= 149.5kbits/s dup=1146 drop=5552 speed=0.993x    frame= 7222 fps= 30 q=29.0 size=    4352kB time=00:03:58.96 bitrate= 149.2kbits/s dup=1146 drop=5566 speed=0.993x    frame= 7237 fps= 30 q=29.0 size=    4352kB time=00:03:59.46 bitrate= 148.9kbits/s dup=1146 drop=5575 speed=0.993x    frame= 7252 fps= 30 q=29.0 size=    4352kB time=00:03:59.96 bitrate= 148.6kbits/s dup=1146 drop=5590 speed=0.993x    frame= 7267 fps= 30 q=29.0 size=    4352kB time=00:04:00.46 bitrate= 148.3kbits/s dup=1146 drop=5605 speed=0.993x    frame= 7283 fps= 30 q=29.0 size=    4352kB time=00:04:01.00 bitrate= 147.9kbits/s dup=1146 drop=5621 speed=0.993x    frame= 7298 fps= 30 q=29.0 size=    4352kB time=00:04:01.50 bitrate= 147.6kbits/s dup=1146 drop=5636 speed=0.993x    frame= 7313 fps= 30 q=29.0 size=    4352kB time=00:04:02.00 bitrate= 147.3kbits/s dup=1146 drop=5651 speed=0.993x    frame= 7326 fps= 30 q=29.0 size=    4352kB time=00:04:02.43 bitrate= 147.1kbits/s dup=1148 drop=5657 speed=0.993x    frame= 7344 fps= 30 q=29.0 size=    4352kB time=00:04:03.03 bitrate= 146.7kbits/s dup=1154 drop=5657 speed=0.993x    frame= 7359 fps= 30 q=29.0 size=    4352kB time=00:04:03.53 bitrate= 146.4kbits/s dup=1156 drop=5665 speed=0.993x    frame= 7376 fps= 30 q=29.0 size=    4608kB time=00:04:04.10 bitrate= 154.6kbits/s dup=1156 drop=5674 speed=0.993x    frame= 7391 fps= 30 q=29.0 size=    4608kB time=00:04:04.60 bitrate= 154.3kbits/s dup=1156 drop=5688 speed=0.993x    frame= 7406 fps= 30 q=29.0 size=    4608kB time=00:04:05.10 bitrate= 154.0kbits/s dup=1156 drop=5703 speed=0.993x    frame= 7421 fps= 30 q=29.0 size=    4608kB time=00:04:05.60 bitrate= 153.7kbits/s dup=1156 drop=5716 speed=0.993x    frame= 7438 fps= 30 q=29.0 size=    4608kB time=00:04:06.16 bitrate= 153.3kbits/s dup=1156 drop=5722 speed=0.993x    frame= 7452 fps= 30 q=29.0 size=    4608kB time=00:04:06.63 bitrate= 153.1kbits/s dup=1157 drop=5727 speed=0.993x    frame= 7468 fps= 30 q=29.0 size=    4608kB time=00:04:07.16 bitrate= 152.7kbits/s dup=1157 drop=5733 speed=0.993x    frame= 7485 fps= 30 q=29.0 size=    4608kB time=00:04:07.73 bitrate= 152.4kbits/s dup=1171 drop=5734 speed=0.993x    frame= 7508 fps= 30 q=29.0 size=    4608kB time=00:04:08.50 bitrate= 151.9kbits/s dup=1192 drop=5734 speed=0.993x    frame= 7524 fps= 30 q=29.0 size=    4608kB time=00:04:09.03 bitrate= 151.6kbits/s dup=1205 drop=5734 speed=0.993x    frame= 7541 fps= 30 q=29.0 size=    4608kB time=00:04:09.60 bitrate= 151.2kbits/s dup=1205 drop=5744 speed=0.993x    frame= 7556 fps= 30 q=29.0 size=    4608kB time=00:04:10.10 bitrate= 150.9kbits/s dup=1205 drop=5754 speed=0.993x    frame= 7572 fps= 30 q=29.0 size=    4608kB time=00:04:10.63 bitrate= 150.6kbits/s dup=1205 drop=5770 speed=0.993x    frame= 7587 fps= 30 q=29.0 size=    4608kB time=00:04:11.13 bitrate= 150.3kbits/s dup=1205 drop=5785 speed=0.993x    frame= 7602 fps= 30 q=29.0 size=    4608kB time=00:04:11.63 bitrate= 150.0kbits/s dup=1205 drop=5800 speed=0.993x    frame= 7617 fps= 30 q=29.0 size=    4608kB time=00:04:12.13 bitrate= 149.7kbits/s dup=1205 drop=5815 speed=0.993x    frame= 7632 fps= 30 q=29.0 size=    4608kB time=00:04:12.63 bitrate= 149.4kbits/s dup=1205 drop=5830 speed=0.993x    frame= 7648 fps= 30 q=29.0 size=    4608kB time=00:04:13.16 bitrate= 149.1kbits/s dup=1205 drop=5846 speed=0.993x    frame= 7663 fps= 30 q=29.0 size=    4608kB time=00:04:13.66 bitrate= 148.8kbits/s dup=1205 drop=5861 speed=0.993x    frame= 7679 fps= 30 q=29.0 size=    4608kB time=00:04:14.20 bitrate= 148.5kbits/s dup=1205 drop=5877 speed=0.994x    frame= 7694 fps= 30 q=29.0 size=    4608kB time=00:04:14.70 bitrate= 148.2kbits/s dup=1205 drop=5892 speed=0.993x    frame= 7709 fps= 30 q=29.0 size=    4608kB time=00:04:15.20 bitrate= 147.9kbits/s dup=1205 drop=5907 speed=0.993x    frame= 7725 fps= 30 q=29.0 size=    4608kB time=00:04:15.73 bitrate= 147.6kbits/s dup=1205 drop=5923 speed=0.994x    frame= 7740 fps= 30 q=29.0 size=    4608kB time=00:04:16.23 bitrate= 147.3kbits/s dup=1205 drop=5937 speed=0.994x    frame= 7755 fps= 30 q=29.0 size=    4608kB time=00:04:16.73 bitrate= 147.0kbits/s dup=1205 drop=5952 speed=0.994x    frame= 7771 fps= 30 q=29.0 size=    4608kB time=00:04:17.26 bitrate= 146.7kbits/s dup=1205 drop=5968 speed=0.994x    frame= 7786 fps= 30 q=29.0 size=    4608kB time=00:04:17.76 bitrate= 146.4kbits/s dup=1205 drop=5983 speed=0.994x    frame= 7801 fps= 30 q=29.0 size=    4608kB time=00:04:18.26 bitrate= 146.2kbits/s dup=1205 drop=5998 speed=0.994x    frame= 7817 fps= 30 q=29.0 size=    4608kB time=00:04:18.80 bitrate= 145.9kbits/s dup=1205 drop=6014 speed=0.994x    frame= 7832 fps= 30 q=29.0 size=    4608kB time=00:04:19.30 bitrate= 145.6kbits/s dup=1205 drop=6029 speed=0.994x    frame= 7847 fps= 30 q=29.0 size=    4608kB time=00:04:19.80 bitrate= 145.3kbits/s dup=1205 drop=6044 speed=0.994x    frame= 7863 fps= 30 q=29.0 size=    4864kB time=00:04:20.33 bitrate= 153.1kbits/s dup=1205 drop=6060 speed=0.994x    frame= 7878 fps= 30 q=29.0 size=    4864kB time=00:04:20.83 bitrate= 152.8kbits/s dup=1205 drop=6075 speed=0.994x    frame= 7893 fps= 30 q=29.0 size=    4864kB time=00:04:21.33 bitrate= 152.5kbits/s dup=1205 drop=6090 speed=0.994x    frame= 7908 fps= 30 q=29.0 size=    4864kB time=00:04:21.83 bitrate= 152.2kbits/s dup=1205 drop=6105 speed=0.994x    frame= 7924 fps= 30 q=29.0 size=    4864kB time=00:04:22.36 bitrate= 151.9kbits/s dup=1205 drop=6121 speed=0.994x    frame= 7939 fps= 30 q=29.0 size=    4864kB time=00:04:22.86 bitrate= 151.6kbits/s dup=1205 drop=6136 speed=0.994x    frame= 7954 fps= 30 q=29.0 size=    4864kB time=00:04:23.36 bitrate= 151.3kbits/s dup=1205 drop=6151 speed=0.994x    frame= 7970 fps= 30 q=29.0 size=    4864kB time=00:04:23.90 bitrate= 151.0kbits/s dup=1205 drop=6167 speed=0.994x    frame= 7985 fps= 30 q=29.0 size=    4864kB time=00:04:24.40 bitrate= 150.7kbits/s dup=1205 drop=6182 speed=0.994x    frame= 8000 fps= 30 q=29.0 size=    4864kB time=00:04:24.90 bitrate= 150.4kbits/s dup=1205 drop=6197 speed=0.994x    frame= 8016 fps= 30 q=29.0 size=    4864kB time=00:04:25.43 bitrate= 150.1kbits/s dup=1205 drop=6213 speed=0.994x    frame= 8031 fps= 30 q=29.0 size=    4864kB time=00:04:25.93 bitrate= 149.8kbits/s dup=1205 drop=6228 speed=0.994x    frame= 8046 fps= 30 q=29.0 size=    4864kB time=00:04:26.43 bitrate= 149.6kbits/s dup=1205 drop=6243 speed=0.994x    frame= 8062 fps= 30 q=29.0 size=    4864kB time=00:04:26.96 bitrate= 149.3kbits/s dup=1205 drop=6259 speed=0.994x    frame= 8077 fps= 30 q=29.0 size=    4864kB time=00:04:27.46 bitrate= 149.0kbits/s dup=1205 drop=6274 speed=0.994x    frame= 8092 fps= 30 q=29.0 size=    4864kB time=00:04:27.96 bitrate= 148.7kbits/s dup=1205 drop=6289 speed=0.994x    frame= 8107 fps= 30 q=29.0 size=    4864kB time=00:04:28.46 bitrate= 148.4kbits/s dup=1205 drop=6304 speed=0.994x    frame= 8122 fps= 30 q=29.0 size=    4864kB time=00:04:28.96 bitrate= 148.1kbits/s dup=1205 drop=6319 speed=0.994x    frame= 8137 fps= 30 q=29.0 size=    4864kB time=00:04:29.46 bitrate= 147.9kbits/s dup=1205 drop=6334 speed=0.994x    frame= 8152 fps= 30 q=29.0 size=    4864kB time=00:04:29.96 bitrate= 147.6kbits/s dup=1205 drop=6341 speed=0.994x    frame= 8169 fps= 30 q=29.0 size=    4864kB time=00:04:30.53 bitrate= 147.3kbits/s dup=1205 drop=6352 speed=0.994x    frame= 8184 fps= 30 q=29.0 size=    4864kB time=00:04:31.03 bitrate= 147.0kbits/s dup=1205 drop=6367 speed=0.994x    frame= 8199 fps= 30 q=29.0 size=    4864kB time=00:04:31.53 bitrate= 146.7kbits/s dup=1205 drop=6382 speed=0.994x    frame= 8214 fps= 30 q=29.0 size=    4864kB time=00:04:32.03 bitrate= 146.5kbits/s dup=1205 drop=6397 speed=0.994x    frame= 8230 fps= 30 q=29.0 size=    4864kB time=00:04:32.56 bitrate= 146.2kbits/s dup=1205 drop=6413 speed=0.994x    frame= 8245 fps= 30 q=29.0 size=    4864kB time=00:04:33.06 bitrate= 145.9kbits/s dup=1205 drop=6428 speed=0.994x    frame= 8260 fps= 30 q=29.0 size=    4864kB time=00:04:33.56 bitrate= 145.7kbits/s dup=1205 drop=6443 speed=0.994x    frame= 8275 fps= 30 q=29.0 size=    4864kB time=00:04:34.06 bitrate= 145.4kbits/s dup=1205 drop=6458 speed=0.994x    frame= 8290 fps= 30 q=29.0 size=    4864kB time=00:04:34.56 bitrate= 145.1kbits/s dup=1205 drop=6473 speed=0.994x    frame= 8306 fps= 30 q=29.0 size=    4864kB time=00:04:35.10 bitrate= 144.8kbits/s dup=1205 drop=6489 speed=0.994x    frame= 8321 fps= 30 q=29.0 size=    4864kB time=00:04:35.60 bitrate= 144.6kbits/s dup=1205 drop=6504 speed=0.994x    frame= 8336 fps= 30 q=29.0 size=    4864kB time=00:04:36.10 bitrate= 144.3kbits/s dup=1205 drop=6516 speed=0.994x    frame= 8354 fps= 30 q=29.0 size=    4864kB time=00:04:36.70 bitrate= 144.0kbits/s dup=1205 drop=6524 speed=0.994x    frame= 8369 fps= 30 q=29.0 size=    5120kB time=00:04:37.20 bitrate= 151.3kbits/s dup=1205 drop=6539 speed=0.994x    frame= 8384 fps= 30 q=29.0 size=    5120kB time=00:04:37.70 bitrate= 151.0kbits/s dup=1205 drop=6554 speed=0.994x    frame= 8399 fps= 30 q=29.0 size=    5120kB time=00:04:38.20 bitrate= 150.8kbits/s dup=1205 drop=6569 speed=0.994x    frame= 8415 fps= 30 q=29.0 size=    5120kB time=00:04:38.73 bitrate= 150.5kbits/s dup=1205 drop=6585 speed=0.994x    frame= 8430 fps= 30 q=29.0 size=    5120kB time=00:04:39.23 bitrate= 150.2kbits/s dup=1205 drop=6600 speed=0.994x    frame= 8445 fps= 30 q=29.0 size=    5120kB time=00:04:39.73 bitrate= 149.9kbits/s dup=1205 drop=6615 speed=0.994x    frame= 8460 fps= 30 q=29.0 size=    5120kB time=00:04:40.23 bitrate= 149.7kbits/s dup=1205 drop=6630 speed=0.994x    frame= 8475 fps= 30 q=29.0 size=    5120kB time=00:04:40.73 bitrate= 149.4kbits/s dup=1205 drop=6645 speed=0.994x    frame= 8490 fps= 30 q=29.0 size=    5120kB time=00:04:41.23 bitrate= 149.1kbits/s dup=1205 drop=6660 speed=0.994x    frame= 8506 fps= 30 q=29.0 size=    5120kB time=00:04:41.76 bitrate= 148.9kbits/s dup=1205 drop=6676 speed=0.994x    frame= 8521 fps= 30 q=29.0 size=    5120kB time=00:04:42.26 bitrate= 148.6kbits/s dup=1205 drop=6691 speed=0.994x    frame= 8537 fps= 30 q=29.0 size=    5120kB time=00:04:42.80 bitrate= 148.3kbits/s dup=1205 drop=6707 speed=0.994x    frame= 8552 fps= 30 q=29.0 size=    5120kB time=00:04:43.30 bitrate= 148.1kbits/s dup=1205 drop=6722 speed=0.994x    frame= 8567 fps= 30 q=29.0 size=    5120kB time=00:04:43.80 bitrate= 147.8kbits/s dup=1205 drop=6737 speed=0.994x    frame= 8582 fps= 30 q=29.0 size=    5120kB time=00:04:44.30 bitrate= 147.5kbits/s dup=1205 drop=6752 speed=0.994x    frame= 8597 fps= 30 q=29.0 size=    5120kB time=00:04:44.80 bitrate= 147.3kbits/s dup=1205 drop=6767 speed=0.994x    frame= 8612 fps= 30 q=29.0 size=    5120kB time=00:04:45.30 bitrate= 147.0kbits/s dup=1205 drop=6782 speed=0.994x    frame= 8628 fps= 30 q=29.0 size=    5120kB time=00:04:45.83 bitrate= 146.7kbits/s dup=1205 drop=6798 speed=0.994x    frame= 8643 fps= 30 q=29.0 size=    5120kB time=00:04:46.33 bitrate= 146.5kbits/s dup=1205 drop=6812 speed=0.994x    frame= 8658 fps= 30 q=29.0 size=    5120kB time=00:04:46.83 bitrate= 146.2kbits/s dup=1205 drop=6827 speed=0.994x    frame= 8673 fps= 30 q=29.0 size=    5120kB time=00:04:47.33 bitrate= 146.0kbits/s dup=1205 drop=6840 speed=0.994x    frame= 8689 fps= 30 q=29.0 size=    5120kB time=00:04:47.86 bitrate= 145.7kbits/s dup=1205 drop=6856 speed=0.994x    frame= 8704 fps= 30 q=29.0 size=    5120kB time=00:04:48.36 bitrate= 145.5kbits/s dup=1205 drop=6871 speed=0.994x    frame= 8719 fps= 30 q=29.0 size=    5120kB time=00:04:48.86 bitrate= 145.2kbits/s dup=1205 drop=6886 speed=0.994x    frame= 8734 fps= 30 q=29.0 size=    5120kB time=00:04:49.36 bitrate= 144.9kbits/s dup=1205 drop=6901 speed=0.994x    frame= 8749 fps= 30 q=29.0 size=    5120kB time=00:04:49.86 bitrate= 144.7kbits/s dup=1205 drop=6913 speed=0.994x    frame= 8764 fps= 30 q=29.0 size=    5120kB time=00:04:50.36 bitrate= 144.4kbits/s dup=1205 drop=6923 speed=0.994x    frame= 8780 fps= 30 q=29.0 size=    5120kB time=00:04:50.90 bitrate= 144.2kbits/s dup=1205 drop=6930 speed=0.994x    frame= 8796 fps= 30 q=29.0 size=    5120kB time=00:04:51.43 bitrate= 143.9kbits/s dup=1205 drop=6945 speed=0.994x    frame= 8811 fps= 30 q=29.0 size=    5376kB time=00:04:51.93 bitrate= 150.9kbits/s dup=1205 drop=6960 speed=0.994x    frame= 8826 fps= 30 q=29.0 size=    5376kB time=00:04:52.43 bitrate= 150.6kbits/s dup=1205 drop=6975 speed=0.994x    frame= 8842 fps= 30 q=29.0 size=    5376kB time=00:04:52.96 bitrate= 150.3kbits/s dup=1205 drop=6991 speed=0.994x    frame= 8857 fps= 30 q=29.0 size=    5376kB time=00:04:53.46 bitrate= 150.1kbits/s dup=1205 drop=7003 speed=0.994x    frame= 8872 fps= 30 q=29.0 size=    5376kB time=00:04:53.96 bitrate= 149.8kbits/s dup=1205 drop=7014 speed=0.994x    frame= 8887 fps= 30 q=29.0 size=    5376kB time=00:04:54.46 bitrate= 149.6kbits/s dup=1205 drop=7026 speed=0.994x    frame= 8913 fps= 30 q=29.0 size=    5376kB time=00:04:55.33 bitrate= 149.1kbits/s dup=1217 drop=7039 speed=0.994x    frame= 8937 fps= 30 q=29.0 size=    5376kB time=00:04:56.13 bitrate= 148.7kbits/s dup=1239 drop=7039 speed=0.994x    frame= 8952 fps= 30 q=29.0 size=    5376kB time=00:04:56.63 bitrate= 148.5kbits/s dup=1253 drop=7039 speed=0.994x    frame= 8969 fps= 30 q=29.0 size=    5376kB time=00:04:57.20 bitrate= 148.2kbits/s dup=1263 drop=7040 speed=0.994x    frame= 8984 fps= 30 q=29.0 size=    5376kB time=00:04:57.70 bitrate= 147.9kbits/s dup=1263 drop=7055 speed=0.994x    frame= 9000 fps= 30 q=29.0 size=    5376kB time=00:04:58.23 bitrate= 147.7kbits/s dup=1263 drop=7071 speed=0.994x    frame= 9015 fps= 30 q=29.0 size=    5376kB time=00:04:58.73 bitrate= 147.4kbits/s dup=1263 drop=7084 speed=0.994x    frame= 9030 fps= 30 q=29.0 size=    5376kB time=00:04:59.23 bitrate= 147.2kbits/s dup=1263 drop=7099 speed=0.994x    frame= 9046 fps= 30 q=29.0 size=    5376kB time=00:04:59.76 bitrate= 146.9kbits/s dup=1263 drop=7115 speed=0.995x    frame= 9061 fps= 30 q=29.0 size=    5376kB time=00:05:00.26 bitrate= 146.7kbits/s dup=1263 drop=7130 speed=0.995x    frame= 9076 fps= 30 q=29.0 size=    5376kB time=00:05:00.76 bitrate= 146.4kbits/s dup=1263 drop=7145 speed=0.994x    frame= 9092 fps= 30 q=29.0 size=    5376kB time=00:05:01.30 bitrate= 146.2kbits/s dup=1263 drop=7161 speed=0.995x    frame= 9107 fps= 30 q=29.0 size=    5376kB time=00:05:01.80 bitrate= 145.9kbits/s dup=1263 drop=7176 speed=0.994x    frame= 9123 fps= 30 q=29.0 size=    5376kB time=00:05:02.33 bitrate= 145.7kbits/s dup=1263 drop=7192 speed=0.995x    frame= 9138 fps= 30 q=29.0 size=    5376kB time=00:05:02.83 bitrate= 145.4kbits/s dup=1263 drop=7207 speed=0.995x    frame= 9153 fps= 30 q=29.0 size=    5376kB time=00:05:03.33 bitrate= 145.2kbits/s dup=1263 drop=7217 speed=0.995x    frame= 9169 fps= 30 q=29.0 size=    5376kB time=00:05:03.86 bitrate= 144.9kbits/s dup=1263 drop=7233 speed=0.995x    frame= 9184 fps= 30 q=29.0 size=    5376kB time=00:05:04.36 bitrate= 144.7kbits/s dup=1263 drop=7248 speed=0.995x    frame= 9199 fps= 30 q=29.0 size=    5376kB time=00:05:04.86 bitrate= 144.5kbits/s dup=1263 drop=7263 speed=0.995x    frame= 9214 fps= 30 q=29.0 size=    5376kB time=00:05:05.36 bitrate= 144.2kbits/s dup=1263 drop=7278 speed=0.995x    frame= 9230 fps= 30 q=29.0 size=    5376kB time=00:05:05.90 bitrate= 144.0kbits/s dup=1263 drop=7294 speed=0.995x    frame= 9245 fps= 30 q=29.0 size=    5376kB time=00:05:06.40 bitrate= 143.7kbits/s dup=1263 drop=7309 speed=0.995x    frame= 9261 fps= 30 q=29.0 size=    5376kB time=00:05:06.93 bitrate= 143.5kbits/s dup=1263 drop=7325 speed=0.995x    frame= 9276 fps= 30 q=29.0 size=    5376kB time=00:05:07.43 bitrate= 143.3kbits/s dup=1263 drop=7340 speed=0.995x    frame= 9291 fps= 30 q=29.0 size=    5376kB time=00:05:07.93 bitrate= 143.0kbits/s dup=1263 drop=7355 speed=0.995x    frame= 9306 fps= 30 q=29.0 size=    5632kB time=00:05:08.43 bitrate= 149.6kbits/s dup=1263 drop=7370 speed=0.995x    frame= 9322 fps= 30 q=29.0 size=    5632kB time=00:05:08.96 bitrate= 149.3kbits/s dup=1263 drop=7386 speed=0.995x    frame= 9337 fps= 30 q=29.0 size=    5632kB time=00:05:09.46 bitrate= 149.1kbits/s dup=1263 drop=7401 speed=0.995x    frame= 9352 fps= 30 q=29.0 size=    5632kB time=00:05:09.96 bitrate= 148.8kbits/s dup=1263 drop=7416 speed=0.995x    frame= 9367 fps= 30 q=29.0 size=    5632kB time=00:05:10.46 bitrate= 148.6kbits/s dup=1263 drop=7431 speed=0.995x    frame= 9382 fps= 30 q=29.0 size=    5632kB time=00:05:10.96 bitrate= 148.4kbits/s dup=1263 drop=7446 speed=0.995x    frame= 9398 fps= 30 q=29.0 size=    5632kB time=00:05:11.50 bitrate= 148.1kbits/s dup=1263 drop=7462 speed=0.995x    frame= 9413 fps= 30 q=29.0 size=    5632kB time=00:05:12.00 bitrate= 147.9kbits/s dup=1263 drop=7477 speed=0.995x    frame= 9429 fps= 30 q=29.0 size=    5632kB time=00:05:12.53 bitrate= 147.6kbits/s dup=1263 drop=7493 speed=0.995x    frame= 9444 fps= 30 q=29.0 size=    5632kB time=00:05:13.03 bitrate= 147.4kbits/s dup=1263 drop=7508 speed=0.995x    frame= 9459 fps= 30 q=29.0 size=    5632kB time=00:05:13.53 bitrate= 147.2kbits/s dup=1263 drop=7518 speed=0.995x    frame= 9475 fps= 30 q=29.0 size=    5632kB time=00:05:14.06 bitrate= 146.9kbits/s dup=1263 drop=7534 speed=0.995x    frame= 9490 fps= 30 q=29.0 size=    5632kB time=00:05:14.56 bitrate= 146.7kbits/s dup=1263 drop=7549 speed=0.995x    frame= 9506 fps= 30 q=29.0 size=    5632kB time=00:05:15.10 bitrate= 146.4kbits/s dup=1263 drop=7565 speed=0.995x    frame= 9521 fps= 30 q=29.0 size=    5632kB time=00:05:15.60 bitrate= 146.2kbits/s dup=1263 drop=7580 speed=0.995x    frame= 9536 fps= 30 q=29.0 size=    5632kB time=00:05:16.10 bitrate= 146.0kbits/s dup=1263 drop=7595 speed=0.995x    frame= 9551 fps= 30 q=29.0 size=    5632kB time=00:05:16.60 bitrate= 145.7kbits/s dup=1263 drop=7610 speed=0.995x    frame= 9566 fps= 30 q=29.0 size=    5632kB time=00:05:17.10 bitrate= 145.5kbits/s dup=1263 drop=7625 speed=0.995x    frame= 9582 fps= 30 q=29.0 size=    5632kB time=00:05:17.63 bitrate= 145.3kbits/s dup=1263 drop=7634 speed=0.995x    frame= 9599 fps= 30 q=29.0 size=    5632kB time=00:05:18.20 bitrate= 145.0kbits/s dup=1263 drop=7648 speed=0.995x    frame= 9614 fps= 30 q=29.0 size=    5632kB time=00:05:18.70 bitrate= 144.8kbits/s dup=1263 drop=7663 speed=0.995x    frame= 9629 fps= 30 q=29.0 size=    5632kB time=00:05:19.20 bitrate= 144.5kbits/s dup=1263 drop=7678 speed=0.995x    frame= 9644 fps= 30 q=29.0 size=    5632kB time=00:05:19.70 bitrate= 144.3kbits/s dup=1263 drop=7693 speed=0.995x    frame= 9660 fps= 30 q=29.0 size=    5632kB time=00:05:20.23 bitrate= 144.1kbits/s dup=1263 drop=7709 speed=0.995x    frame= 9675 fps= 30 q=29.0 size=    5632kB time=00:05:20.73 bitrate= 143.9kbits/s dup=1263 drop=7724 speed=0.995x    frame= 9690 fps= 30 q=29.0 size=    5632kB time=00:05:21.23 bitrate= 143.6kbits/s dup=1263 drop=7739 speed=0.995x    frame= 9706 fps= 30 q=29.0 size=    5632kB time=00:05:21.76 bitrate= 143.4kbits/s dup=1263 drop=7755 speed=0.995x    frame= 9721 fps= 30 q=29.0 size=    5632kB time=00:05:22.26 bitrate= 143.2kbits/s dup=1263 drop=7770 speed=0.995x    frame= 9736 fps= 30 q=29.0 size=    5632kB time=00:05:22.76 bitrate= 142.9kbits/s dup=1263 drop=7785 speed=0.995x    frame= 9751 fps= 30 q=29.0 size=    5632kB time=00:05:23.26 bitrate= 142.7kbits/s dup=1263 drop=7799 speed=0.995x    frame= 9765 fps= 30 q=29.0 size=    5632kB time=00:05:23.73 bitrate= 142.5kbits/s dup=1266 drop=7803 speed=0.995x    frame= 9782 fps= 30 q=29.0 size=    5632kB time=00:05:24.30 bitrate= 142.3kbits/s dup=1266 drop=7817 speed=0.995x    frame= 9797 fps= 30 q=29.0 size=    5632kB time=00:05:24.80 bitrate= 142.0kbits/s dup=1266 drop=7832 speed=0.995x    frame= 9812 fps= 30 q=29.0 size=    5888kB time=00:05:25.30 bitrate= 148.3kbits/s dup=1266 drop=7847 speed=0.995x    frame= 9828 fps= 30 q=29.0 size=    5888kB time=00:05:25.83 bitrate= 148.0kbits/s dup=1266 drop=7863 speed=0.995x    frame= 9843 fps= 30 q=29.0 size=    5888kB time=00:05:26.33 bitrate= 147.8kbits/s dup=1266 drop=7878 speed=0.995x    frame= 9858 fps= 30 q=29.0 size=    5888kB time=00:05:26.83 bitrate= 147.6kbits/s dup=1266 drop=7893 speed=0.995x    frame= 9874 fps= 30 q=29.0 size=    5888kB time=00:05:27.36 bitrate= 147.3kbits/s dup=1266 drop=7909 speed=0.995x    frame= 9889 fps= 30 q=29.0 size=    5888kB time=00:05:27.86 bitrate= 147.1kbits/s dup=1266 drop=7924 speed=0.995x    frame= 9904 fps= 30 q=29.0 size=    5888kB time=00:05:28.36 bitrate= 146.9kbits/s dup=1266 drop=7939 speed=0.995x    frame= 9920 fps= 30 q=29.0 size=    5888kB time=00:05:28.90 bitrate= 146.7kbits/s dup=1266 drop=7955 speed=0.995x    frame= 9935 fps= 30 q=29.0 size=    5888kB time=00:05:29.40 bitrate= 146.4kbits/s dup=1266 drop=7970 speed=0.995x    frame= 9950 fps= 30 q=29.0 size=    5888kB time=00:05:29.90 bitrate= 146.2kbits/s dup=1266 drop=7985 speed=0.995x    frame= 9966 fps= 30 q=29.0 size=    5888kB time=00:05:30.43 bitrate= 146.0kbits/s dup=1266 drop=8001 speed=0.995x    frame= 9981 fps= 30 q=29.0 size=    5888kB time=00:05:30.93 bitrate= 145.8kbits/s dup=1266 drop=8016 speed=0.995x    frame= 9996 fps= 30 q=29.0 size=    5888kB time=00:05:31.43 bitrate= 145.5kbits/s dup=1266 drop=8031 speed=0.995x    frame=10011 fps= 30 q=29.0 size=    5888kB time=00:05:31.93 bitrate= 145.3kbits/s dup=1266 drop=8046 speed=0.995x    frame=10026 fps= 30 q=29.0 size=    5888kB time=00:05:32.43 bitrate= 145.1kbits/s dup=1266 drop=8061 speed=0.995x    frame=10042 fps= 30 q=29.0 size=    5888kB time=00:05:32.96 bitrate= 144.9kbits/s dup=1266 drop=8077 speed=0.995x    frame=10057 fps= 30 q=29.0 size=    5888kB time=00:05:33.46 bitrate= 144.6kbits/s dup=1266 drop=8092 speed=0.995x    frame=10072 fps= 30 q=29.0 size=    5888kB time=00:05:33.96 bitrate= 144.4kbits/s dup=1266 drop=8107 speed=0.995x    frame=10088 fps= 30 q=29.0 size=    5888kB time=00:05:34.50 bitrate= 144.2kbits/s dup=1266 drop=8123 speed=0.995x    frame=10103 fps= 30 q=29.0 size=    5888kB time=00:05:35.00 bitrate= 144.0kbits/s dup=1266 drop=8138 speed=0.995x    frame=10120 fps= 30 q=29.0 size=    5888kB time=00:05:35.56 bitrate= 143.7kbits/s dup=1267 drop=8153 speed=0.995x    frame=10138 fps= 30 q=29.0 size=    5888kB time=00:05:36.16 bitrate= 143.5kbits/s dup=1267 drop=8166 speed=0.995x    frame=10153 fps= 30 q=29.0 size=    5888kB time=00:05:36.66 bitrate= 143.3kbits/s dup=1267 drop=8180 speed=0.995x    frame=10168 fps= 30 q=29.0 size=    5888kB time=00:05:37.16 bitrate= 143.1kbits/s dup=1267 drop=8195 speed=0.995x    frame=10183 fps= 30 q=29.0 size=    5888kB time=00:05:37.66 bitrate= 142.8kbits/s dup=1267 drop=8207 speed=0.995x    frame=10199 fps= 30 q=29.0 size=    5888kB time=00:05:38.20 bitrate= 142.6kbits/s dup=1274 drop=8207 speed=0.995x    frame=10215 fps= 30 q=29.0 size=    5888kB time=00:05:38.73 bitrate= 142.4kbits/s dup=1283 drop=8207 speed=0.995x    frame=10234 fps= 30 q=29.0 size=    5888kB time=00:05:39.36 bitrate= 142.1kbits/s dup=1286 drop=8212 speed=0.995x    frame=10250 fps= 30 q=29.0 size=    5888kB time=00:05:39.90 bitrate= 141.9kbits/s dup=1299 drop=8212 speed=0.995x    frame=10267 fps= 30 q=29.0 size=    5888kB time=00:05:40.46 bitrate= 141.7kbits/s dup=1300 drop=8219 speed=0.995x    frame=10280 fps= 30 q=29.0 size=    6144kB time=00:05:40.90 bitrate= 147.6kbits/s dup=1306 drop=8223 speed=0.995x    frame=10301 fps= 30 q=29.0 size=    6144kB time=00:05:41.60 bitrate= 147.3kbits/s dup=1323 drop=8223 speed=0.995x    frame=10321 fps= 30 q=29.0 size=    6144kB time=00:05:42.26 bitrate= 147.1kbits/s dup=1341 drop=8223 speed=0.995x    frame=10341 fps= 30 q=29.0 size=    6144kB time=00:05:42.93 bitrate= 146.8kbits/s dup=1359 drop=8223 speed=0.995x    frame=10369 fps= 30 q=29.0 size=    6144kB time=00:05:43.86 bitrate= 146.4kbits/s dup=1385 drop=8223 speed=0.995x    frame=10386 fps= 30 q=29.0 size=    6144kB time=00:05:44.43 bitrate= 146.1kbits/s dup=1400 drop=8223 speed=0.995x    frame=10404 fps= 30 q=29.0 size=    6144kB time=00:05:45.03 bitrate= 145.9kbits/s dup=1406 drop=8225 speed=0.995x    frame=10419 fps= 30 q=29.0 size=    6144kB time=00:05:45.53 bitrate= 145.7kbits/s dup=1406 drop=8236 speed=0.995x    frame=10434 fps= 30 q=29.0 size=    6144kB time=00:05:46.03 bitrate= 145.5kbits/s dup=1406 drop=8251 speed=0.995x    frame=10450 fps= 30 q=29.0 size=    6144kB time=00:05:46.56 bitrate= 145.2kbits/s dup=1406 drop=8267 speed=0.995x    frame=10465 fps= 30 q=29.0 size=    6144kB time=00:05:47.06 bitrate= 145.0kbits/s dup=1406 drop=8282 speed=0.995x    frame=10480 fps= 30 q=29.0 size=    6144kB time=00:05:47.56 bitrate= 144.8kbits/s dup=1406 drop=8297 speed=0.995x    frame=10495 fps= 30 q=29.0 size=    6144kB time=00:05:48.06 bitrate= 144.6kbits/s dup=1406 drop=8312 speed=0.995x    